<?xml version="1.0" encoding="utf-8"?><!DOCTYPE svg PUBLIC "-//W3C//DTD SVG 1.1//EN" "http://www.w3.org/Graphics/SVG/1.1/DTD/svg11.dtd"><svg xmlns="http://www.w3.org/2000/svg" xmlns:xlink="http://www.w3.org/1999/xlink"><symbol viewBox="0 0 1024 1024" class="aicon" id="briefcase-vector-icon" xmlns="http://www.w3.org/2000/svg"><path d="M843.2 876.7H180.8c-13.5 0-24.5-11-24.5-24.5V501.7h711.3v350.4c.1 13.6-10.9 24.6-24.4 24.6z" fill="#86EEFE"/><path d="M842 882.4H182c-17.3 0-31.4-14.1-31.4-31.4V496h722.9v355c-.1 17.3-14.2 31.4-31.5 31.4zM162.1 507.5V851c0 11 8.9 19.9 19.9 19.9h660c11 0 19.9-8.9 19.9-19.9V507.5H162.1z" fill="#333336"/><path d="M485.7 835.9H208c-6.2 0-11.2-5-11.2-11.2V521.8H497v302.8c0 6.2-5 11.3-11.3 11.3z" fill="#86EEFE"/><path d="M485.2 841.6H208.5c-9.7 0-17.5-7.9-17.5-17.5V516h311.8v308.1c0 9.7-7.9 17.5-17.6 17.5zM202.5 527.5v296.6c0 3.3 2.7 6 6 6h276.7c3.3 0 6-2.7 6-6V527.5H202.5z" fill="#333336"/><path d="M813.7 835.9H535.9c-6.2 0-11.2-5-11.2-11.2V521.8H825v302.8c-.1 6.2-5.1 11.3-11.3 11.3z" fill="#86EEFE"/><path d="M813.2 841.6H536.5c-9.7 0-17.5-7.9-17.5-17.5V516h311.8v308.1c-.1 9.7-8 17.5-17.6 17.5zM530.5 527.5v296.6c0 3.3 2.7 6 6 6h276.7c3.3 0 6-2.7 6-6V527.5H530.5z" fill="#333336"/><path d="M806.2 589.5H217.8c-34 0-61.5-27.5-61.5-61.5V346.5c0-4.8 3.9-8.7 8.7-8.7h693.8c4.8 0 8.7 3.9 8.7 8.7V528c.2 34-27.4 61.5-61.3 61.5z" fill="#ffe099"/><path d="M803.3 595.3H220.7c-38.7 0-70.1-31.5-70.1-70.1V346.9c0-8.2 6.7-14.9 14.9-14.9h693c8.2 0 14.9 6.7 14.9 14.9v178.2c0 38.7-31.4 70.2-70.1 70.2zM165.5 343.5c-1.9 0-3.4 1.5-3.4 3.4v178.2c0 32.3 26.3 58.6 58.6 58.6h582.6c32.3 0 58.6-26.3 58.6-58.6V346.9c0-1.9-1.5-3.4-3.4-3.4h-693z" fill="#333336"/><path d="M397.3 675H296.4c-.8 0-1.5-.7-1.5-1.5v-131c0-.8.7-1.5 1.5-1.5h100.9c.8 0 1.5.7 1.5 1.5v131c0 .8-.6 1.5-1.5 1.5z" fill="#D5D9CF"/><path d="M397.3 680.7H296.5c-4 0-7.3-3.3-7.3-7.3V542.6c0-4 3.3-7.3 7.3-7.3h100.8c4 0 7.3 3.3 7.3 7.3v130.8c0 4.1-3.3 7.3-7.3 7.3zm-96.6-11.5h92.4V546.8h-92.4v122.4z" fill="#333336"/><path d="M402.5 606.5H291.2c-5 0-9-4-9-9v-9.7c0-5 4-9 9-9h111.3c5 0 9 4 9 9v9.7c0 4.9-4 9-9 9z" fill="#D8A128"/><path d="M402.1 612.2H291.6c-8.4 0-15.2-6.8-15.2-15.2v-8.9c0-8.4 6.8-15.2 15.2-15.2h110.5c8.4 0 15.2 6.8 15.2 15.2v8.9c0 8.4-6.8 15.2-15.2 15.2zm-110.5-27.7c-2 0-3.7 1.6-3.7 3.7v8.9c0 2 1.6 3.7 3.7 3.7h110.5c2 0 3.7-1.6 3.7-3.7v-8.9c0-2-1.6-3.7-3.7-3.7H291.6zm55.3 69.5c-3.2 0-5.8-2.6-5.8-5.8v-15.6c0-3.2 2.6-5.8 5.8-5.8 3.2 0 5.8 2.6 5.8 5.8v15.6c-.1 3.2-2.7 5.8-5.8 5.8z" fill="#333336"/><path d="M723.7 675H622.8c-.8 0-1.5-.7-1.5-1.5v-131c0-.8.7-1.5 1.5-1.5h100.9c.8 0 1.5.7 1.5 1.5v131c0 .8-.6 1.5-1.5 1.5z" fill="#D5D9CF"/><path d="M723.7 680.7H622.9c-4 0-7.3-3.3-7.3-7.3V542.6c0-4 3.3-7.3 7.3-7.3h100.8c4 0 7.3 3.3 7.3 7.3v130.8c0 4.1-3.3 7.3-7.3 7.3zm-96.6-11.5h92.4V546.8h-92.4v122.4z" fill="#333336"/><path d="M729 606.5H617.6c-5 0-9-4-9-9v-9.7c0-5 4-9 9-9H729c5 0 9 4 9 9v9.7c0 4.9-4.1 9-9 9z" fill="#D8A128"/><path d="M728.5 612.2H618c-8.4 0-15.2-6.8-15.2-15.2v-8.9c0-8.4 6.8-15.2 15.2-15.2h110.5c8.4 0 15.2 6.8 15.2 15.2v8.9c0 8.4-6.8 15.2-15.2 15.2zM618 584.5c-2 0-3.7 1.6-3.7 3.7v8.9c0 2 1.6 3.7 3.7 3.7h110.5c2 0 3.7-1.6 3.7-3.7v-8.9c0-2-1.6-3.7-3.7-3.7H618zM673.3 654c-3.2 0-5.8-2.6-5.8-5.8v-15.6c0-3.2 2.6-5.8 5.8-5.8 3.2 0 5.8 2.6 5.8 5.8v15.6c-.1 3.2-2.6 5.8-5.8 5.8z" fill="#333336"/><path d="M664.3 273.2c10.9-7.9 14-22.7 7.2-34.3-21.9-37.4-76-111.6-161.5-111.6-92.6 0-143.4 74.7-163 112-6 11.5-2.6 25.7 7.9 33.3l.2.1c12.8 9.3 30.8 5.1 38.4-8.8 18.9-34.6 58.2-90.1 116.5-90.1 56.6 0 97 56.4 116.4 91 7.6 13.6 25.3 17.5 37.9 8.4z" fill="#ffe099"/><path d="M649.1 283.9c-2.3 0-4.6-.2-6.8-.7-8.8-1.9-16.4-7.6-20.9-15.5-18.5-32.9-57.5-88.1-111.4-88.1-55.7 0-93.8 54.6-111.5 87.1-4.4 8.1-12.1 13.9-21.1 15.9-8.9 2-18.3.1-25.7-5.2l-.2-.1c-12.8-9.2-16.9-26.7-9.6-40.7 10.3-19.6 28.2-47.9 55.4-71.6 33-28.8 70.9-43.4 112.7-43.4 38.7 0 75.1 14.5 108.4 43.2 27.4 23.6 46.7 51.8 58.1 71.3 8.3 14.2 4.5 32.2-8.8 41.8-5.5 3.9-12 6-18.6 6zM510 168.1c59.8 0 101.7 58.9 121.4 93.9 2.8 5 7.7 8.6 13.3 9.9 5.6 1.2 11.5 0 16.2-3.4 8.5-6.1 10.9-17.6 5.6-26.7-11-18.7-29.5-45.8-55.7-68.4-31.1-26.8-65-40.4-100.9-40.4-38.9 0-74.3 13.6-105.1 40.6-25.8 22.5-42.9 49.6-52.8 68.3-4.7 8.9-2 20.1 6.2 26l.2.1c4.7 3.4 10.7 4.6 16.4 3.4 5.7-1.3 10.7-5 13.5-10.2 19.1-34.8 60-93.1 121.7-93.1z" fill="#333336"/><path d="M376.1 247.6 336 313" fill="#ffe099"/><path d="m331.041 309.941 40.114-65.371 9.802 6.014-40.114 65.372z" fill="#333336"/><path d="m644.2 247.6 40.1 65.4" fill="#ffe099"/><path d="m639.253 250.588 9.801-6.014 40.115 65.371-9.802 6.014z" fill="#333336"/><path d="M343 336.2h-67.8c-6.1 0-11-4.9-11-11v-11.9c0-6.1 4.9-11 11-11H343c6.1 0 11 4.9 11 11v11.9c0 6.1-5 11-11 11z" fill="#D5D9CF"/><path d="M342.4 342h-66.8c-9.5 0-17.3-7.8-17.3-17.3v-10.9c0-9.5 7.8-17.3 17.3-17.3h66.8c9.5 0 17.3 7.8 17.3 17.3v10.9c0 9.5-7.7 17.3-17.3 17.3zm-66.7-33.9c-3.2 0-5.8 2.6-5.8 5.8v10.9c0 3.2 2.6 5.8 5.8 5.8h66.8c3.2 0 5.8-2.6 5.8-5.8v-10.9c0-3.2-2.6-5.8-5.8-5.8h-66.8z" fill="#333336"/><path d="M745 336.2h-67.8c-6.1 0-11-4.9-11-11v-11.9c0-6.1 4.9-11 11-11H745c6.1 0 11 4.9 11 11v11.9c0 6.1-4.9 11-11 11z" fill="#D5D9CF"/><path d="M744.4 342h-66.8c-9.5 0-17.3-7.8-17.3-17.3v-10.9c0-9.5 7.8-17.3 17.3-17.3h66.8c9.5 0 17.3 7.8 17.3 17.3v10.9c0 9.5-7.7 17.3-17.3 17.3zm-66.7-33.9c-3.2 0-5.8 2.6-5.8 5.8v10.9c0 3.2 2.6 5.8 5.8 5.8h66.8c3.2 0 5.8-2.6 5.8-5.8v-10.9c0-3.2-2.6-5.8-5.8-5.8h-66.8z" fill="#333336"/></symbol><symbol viewBox="0 0 461.367 461.367" xml:space="preserve" id="group-vector-icon" xmlns="http://www.w3.org/2000/svg"><path style="fill:#1ea6c6" d="M373.88 367.988v.122c-37.818 34.295-88.019 55.185-143.083 55.185-55.073 0-105.275-20.89-143.092-55.185v-.122c0-57.04 33.377-106.277 81.659-129.256 18.145 18.098 39.391 27.85 61.434 27.85 22.052 0 43.288-9.752 61.443-27.85 48.28 22.979 81.639 72.215 81.639 129.256z"/><path style="fill:#fcd09f" d="M230.797 58.571c43.71 0 79.148 35.429 79.148 79.139 0 43.719-35.438 103.504-79.148 103.504s-79.148-59.785-79.148-103.504c0-43.71 35.438-79.139 79.148-79.139z"/><path style="fill:#ef806f" d="M164.094 213.389a130.89 130.89 0 0 0 7.532 9.742l-7.897 3.756c-26.286 12.506-48.525 32.075-64.328 56.59a155.497 155.497 0 0 0-23.71 65.865c-28.562-7.785-54.38-22.22-75.691-41.546v-.103c0-49.705 29.087-92.609 71.157-112.638 15.813 15.775 34.323 24.272 53.527 24.272 12.581 0 24.871-3.644 36.291-10.595a128.43 128.43 0 0 0 3.119 4.657z"/><path style="fill:#d7f9ff" d="M138.539 137.707c0 16.431 4.272 34.511 11.878 51.504-7.953 5.04-16.637 8.009-25.733 8.009-38.089 0-68.965-52.094-68.965-90.193 0-38.089 30.876-68.956 68.965-68.956 21.124 0 40.038 9.499 52.684 24.459-23.485 16.75-38.829 44.207-38.829 75.177z"/><path style="fill:#ef806f" d="M297.273 213.389a130.89 130.89 0 0 1-7.532 9.742l7.897 3.756c26.286 12.506 48.525 32.075 64.328 56.59a155.497 155.497 0 0 1 23.71 65.865c28.562-7.785 54.38-22.22 75.691-41.546v-.103c0-49.705-29.087-92.609-71.157-112.638-15.813 15.775-34.323 24.272-53.527 24.272-12.581 0-24.871-3.644-36.291-10.595a128.43 128.43 0 0 1-3.119 4.657z"/><path style="fill:#d7f9ff" d="M322.828 137.707c0 16.431-4.272 34.511-11.878 51.504 7.953 5.04 16.637 8.009 25.733 8.009 38.089 0 68.965-52.094 68.965-90.193 0-38.089-30.876-68.956-68.965-68.956-21.124 0-40.038 9.499-52.684 24.459 23.485 16.75 38.829 44.207 38.829 75.177z"/></symbol><symbol viewBox="0 0 512 512" id="shop-online-store-ecommerce-icon" xml:space="preserve" fill="#000" xmlns="http://www.w3.org/2000/svg"><g id="cSVGRepo_iconCarrier"><style>.cst0{fill:#a8b2b4}.cst1{fill:#d3d9d9}.cst8{fill:#b8daea}.cst9{fill:#333}.cst10{fill:#d7f9ff}.cst11{fill:#fedd8e}.cst12{fill:#ecfcfe}.cst13{fill:#fee9b4}.cst14{fill:#b1f1fb}.cst15{fill:#fdd367}</style><path class="cst0" d="M26 448.1h460.1v24.4H26z"/><path class="cst1" d="M26 448.1h460.1v24.4H26z"/><path class="cst0" d="M3.9 472.5H508v24.4H3.9z"/><path class="cst1" d="M3.9 472.5h30.3v24.4H3.9z"/><path style="fill:#7c8b8e" d="M477.7 472.5H508v24.4h-30.3z"/><path style="fill:#ededed" d="M26 448.1h26.9v24.4H26z"/><path class="cst0" d="M459.1 448.1H486v24.4h-26.9z"/><path style="fill:#fff" d="M39.4 83.2h433.2v364.9H39.4z"/><path d="M472.6 25.7V66H39.4V25.7c0-5.8 5.7-10.6 12.8-10.6h407.5c7.1 0 12.9 4.7 12.9 10.6z" style="fill:#fc8a8a"/><path d="M76.9 15.1c-7.1 0-12.8 4.7-12.8 10.6V66H39.4V25.7c0-5.8 5.7-10.6 12.8-10.6h24.7z" style="fill:#fcb0b0"/><path d="M472.6 25.7V66H448V25.7c0-5.8-5.7-10.6-12.8-10.6h24.6c7 0 12.8 4.7 12.8 10.6z" style="fill:#f96364"/><path class="cst8" d="M319.6 228h127.8v220.2H319.6zM64.6 228h229.8v185.9H64.6z"/><path class="cst0" d="M294.4 312v17.8h-106v84h-17.8v-84h-106V312h106v-84h17.8v84z"/><path class="cst9" d="M294.4 224H64.6c-2.2 0-3.9 1.8-3.9 3.9v185.9c0 2.2 1.8 3.9 3.9 3.9h229.8c2.2 0 3.9-1.8 3.9-3.9V228c.1-2.2-1.7-4-3.9-4zm-3.9 84.1h-98.1v-76.2h98.1v76.2zm-106 21.7v80.1h-9.9v-80.1c0-2.2-1.8-3.9-3.9-3.9h-102V316h102c2.2 0 3.9-1.8 3.9-3.9V232h9.9v80c0 2.2 1.8 3.9 3.9 3.9h102v9.9h-102c-2.2.1-3.9 1.8-3.9 4zm-17.8-97.9v76.2H68.6v-76.2h98.1zM68.6 333.7h98.1v76.2H68.6v-76.2zm123.8 76.2v-76.2h98.1v76.2h-98.1z"/><path class="cst10" d="M78.8 155.7h70.9v14.8c0 9.8-4 18.7-10.4 25-6.4 6.4-15.2 10.4-25 10.4-19.6 0-35.4-15.9-35.4-35.4v-14.8zM433.2 155.7v14.8c0 9.8-4 18.7-10.4 25-6.4 6.4-15.2 10.4-25 10.4-19.6 0-35.4-15.9-35.4-35.4v-14.8h70.8zM220.6 155.7h70.9v14.8c0 9.8-4 18.7-10.4 25-6.4 6.4-15.2 10.4-25 10.4-19.6 0-35.4-15.9-35.4-35.4v-14.8z"/><path class="cst11" d="M7.9 155.7h70.9v14.8c0 9.8-4 18.7-10.4 25C62 202 53.1 206 43.3 206c-19.6 0-35.4-15.9-35.4-35.4v-14.9zM291.4 155.7h70.9v14.8c0 9.8-4 18.7-10.4 25-6.4 6.4-15.2 10.4-25 10.4-19.6 0-35.4-15.9-35.4-35.4v-14.8zM149.7 155.7h70.9v14.8c0 9.8-4 18.7-10.4 25-6.4 6.4-15.2 10.4-25 10.4-19.6 0-35.4-15.9-35.4-35.4v-14.8zM504.1 155.7v14.8c0 9.8-4 18.7-10.4 25-6.4 6.4-15.2 10.4-25 10.4-19.6 0-35.4-15.9-35.4-35.4v-14.8h70.8zM101.3 66l-22.5 89.7H7.9L39.4 66z"/><path class="cst10" d="m163.2 66-13.5 89.7H78.8L101.3 66z"/><path class="cst11" d="m225.1 66-4.5 89.7h-70.9L163.2 66z"/><path class="cst10" d="m286.9 66 4.5 89.7h-70.8l4.5-89.7z"/><path class="cst11" d="m348.8 66 13.5 89.7h-70.9L286.9 66z"/><path class="cst10" d="m410.7 66 22.5 89.7h-70.9L348.8 66z"/><path class="cst11" d="m472.6 66 31.5 89.7h-70.9L410.7 66z"/><path class="cst12" d="M122.8 204.9c-2.7.7-5.6 1-8.6 1-19.6 0-35.4-15.9-35.4-35.4v-14.8h17.1v14.8c0 16.6 11.5 30.6 26.9 34.4zM406.4 204.9c-2.7.7-5.6 1-8.6 1-19.6 0-35.4-15.9-35.4-35.4v-14.8h17.1v14.8c0 16.6 11.4 30.6 26.9 34.4zM264.6 204.9c-2.7.7-5.6 1-8.6 1-19.6 0-35.4-15.9-35.4-35.4v-14.8h17.1v14.8c0 16.6 11.5 30.6 26.9 34.4z"/><path class="cst13" d="M51.9 204.9c-2.7.7-5.6 1-8.6 1-19.6 0-35.4-15.9-35.4-35.4v-14.8H25v14.8c0 16.6 11.5 30.6 26.9 34.4zM335.5 204.9c-2.7.7-5.6 1-8.6 1-19.6 0-35.4-15.9-35.4-35.4v-14.8h17.1v14.8c0 16.6 11.4 30.6 26.9 34.4zM193.7 204.9c-2.7.7-5.6 1-8.6 1-19.6 0-35.4-15.9-35.4-35.4v-14.8h17.1v14.8c0 16.6 11.5 30.6 26.9 34.4zM477.3 204.9c-2.7.7-5.6 1-8.6 1-19.6 0-35.4-15.9-35.4-35.4v-14.8h17.1v14.8c0 16.6 11.4 30.6 26.9 34.4zM56.6 66 25 155.7H7.9L39.4 66z"/><path class="cst12" d="m118.4 66-22.5 89.7H78.8L101.3 66z"/><path class="cst13" d="m180.3 66-13.5 89.7h-17.1L163.2 66z"/><path class="cst12" d="m242.2 66-4.5 89.7h-17.1l4.5-89.7z"/><path class="cst13" d="M308.6 155.7h-17.1L286.9 66h17.2z"/><path class="cst12" d="M379.5 155.7h-17.2L348.8 66H366z"/><path class="cst13" d="M450.4 155.7h-17.2L410.7 66h17.1z"/><path class="cst14" d="M149.7 155.7v14.8c0 9.8-4 18.7-10.4 25-6.4 6.4-15.2 10.4-25 10.4-3 0-5.8-.4-8.5-1 6.3-1.6 12-4.9 16.5-9.4 6.4-6.4 10.4-15.3 10.4-25v-14.8h17zM433.2 155.7v14.8c0 9.8-4 18.7-10.4 25-6.4 6.4-15.2 10.4-25 10.4-3 0-5.8-.4-8.5-1 6.3-1.6 12-4.9 16.5-9.4 6.4-6.4 10.4-15.3 10.4-25v-14.8h17zM291.4 155.7v14.8c0 9.8-4 18.7-10.4 25-6.4 6.4-15.2 10.4-25 10.4-3 0-5.8-.4-8.5-1 6.3-1.6 12-4.9 16.5-9.4 6.4-6.4 10.4-15.3 10.4-25v-14.8h17z"/><path class="cst15" d="M78.8 155.7v14.8c0 9.8-4 18.7-10.4 25C62 202 53.1 206 43.3 206c-3 0-5.8-.4-8.5-1 6.3-1.6 12-4.9 16.5-9.4 6.4-6.4 10.4-15.3 10.4-25v-14.8h17.1zM362.3 155.7v14.8c0 9.8-4 18.7-10.4 25-6.4 6.4-15.2 10.4-25 10.4-3 0-5.8-.4-8.5-1 6.3-1.6 12-4.9 16.5-9.4 6.4-6.4 10.4-15.3 10.4-25v-14.8h17zM220.6 155.7v14.8c0 9.8-4 18.7-10.4 25-6.4 6.4-15.2 10.4-25 10.4-3 0-5.8-.4-8.5-1 6.3-1.6 12-4.9 16.5-9.4 6.4-6.4 10.4-15.3 10.4-25v-14.8h17zM504.1 155.7v14.8c0 9.8-4 18.7-10.4 25-6.4 6.4-15.2 10.4-25 10.4-3 0-5.8-.4-8.5-1 6.3-1.6 12-4.9 16.5-9.4 6.4-6.4 10.4-15.3 10.4-25v-14.8h17zM101.3 66l-22.5 89.7H61.6L84.2 66z"/><path class="cst14" d="m163.2 66-13.5 89.7h-17.2L146 66z"/><path class="cst15" d="m225.1 66-4.5 89.7h-17.2l4.5-89.7z"/><path class="cst14" d="M291.4 155.7h-17.1L269.8 66H287z"/><path class="cst15" d="M362.3 155.7h-17.1L331.7 66h17.1z"/><path class="cst14" d="M433.2 155.7h-17.1L393.6 66h17.1z"/><path class="cst15" d="M504.1 155.7H487L455.4 66h17.2z"/><path class="cst9" d="M508.1 468.6H490v-20.4c0-2.2-1.8-3.9-3.9-3.9h-9.5v-235c7.5-1.5 14.4-5.2 20-10.8 7.5-7.4 11.6-17.3 11.6-27.8v-15c0-.4-.1-.8-.2-1.1l-.1-.2-31.2-88.9V25.7c0-8-7.5-14.5-16.8-14.5H52.3c-9.2 0-16.8 6.5-16.8 14.5v39.6L4.2 154.4c-.2.4-.2.8-.2 1.2v14.9c0 19 13.6 34.9 31.5 38.6v235H26c-2.2 0-3.9 1.8-3.9 3.9v20.4H3.9c-2.2 0-3.9 1.8-3.9 3.9v24.4c0 2.2 1.8 3.9 3.9 3.9H508c2.2 0 3.9-1.8 3.9-3.9v-24.4c.1-2-1.7-3.7-3.8-3.7zm-7.9-298.1c0 8.4-3.3 16.3-9.2 22.3-6 6-13.9 9.2-22.3 9.2-17.4 0-31.5-14.1-31.5-31.5v-10.9h63v10.9zM447.4 224H319.6c-2.2 0-3.9 1.8-3.9 3.9v216.2H43.4V209.9c10.5 0 20.4-4.1 27.8-11.5 3.2-3.2 5.7-6.8 7.6-10.8 6.4 13.2 19.8 22.3 35.4 22.3 10.5 0 20.4-4.1 27.8-11.5 3.2-3.2 5.7-6.8 7.6-10.8 6.4 13.2 19.8 22.3 35.4 22.3 10.5 0 20.4-4.1 27.8-11.5 3.2-3.2 5.7-6.8 7.6-10.8 6.4 13.2 19.8 22.3 35.4 22.3 10.5 0 20.4-4.1 27.8-11.5 3.2-3.2 5.7-6.8 7.6-10.8 6.4 13.2 19.8 22.3 35.4 22.3 10.5 0 20.4-4.1 27.8-11.5 3.2-3.2 5.7-6.8 7.6-10.8 6.4 13.2 19.8 22.3 35.4 22.3 10.5 0 20.4-4.1 27.8-11.5 3.2-3.2 5.7-6.8 7.6-10.8 6.4 13.2 19.8 22.3 35.4 22.3v234.2h-17.3V228c.4-2.2-1.3-4-3.5-4zM323.6 334.1V231.9h119.9v102.2H323.6zm119.8 7.9v102.2H323.6V342h119.8zM154.2 151.8l12.3-81.9h54.3l-.2 4.8-3.9 77.1h-62.5zm62.4 7.8v10.9c0 8.4-3.3 16.3-9.2 22.3-6 6-13.9 9.2-22.3 9.2-17.4 0-31.5-14.1-31.5-31.5v-10.9h63zm-70.3-7.8H83.8l20.5-81.9h54.2l-12.2 81.9zm-.6 7.8v10.9c0 8.4-3.3 16.3-9.2 22.3-6 6-13.9 9.2-22.3 9.2-17.4 0-31.5-14.1-31.5-31.5v-10.9h63zm141.8 0v10.9c0 8.4-3.3 16.3-9.2 22.3-6 6-13.9 9.2-22.3 9.2-17.4 0-31.5-14.1-31.5-31.5v-10.9h63zm-62.8-7.8.2-4.8 3.9-77.1h54.4l3.1 62.3 1 19.5h-62.6zm141 0-12.3-81.9h54.2l20.5 81.9h-62.4zm63.6 7.8v10.9c0 8.4-3.3 16.3-9.2 22.3-6 6-13.9 9.2-22.3 9.2-17.4 0-31.5-14.1-31.5-31.5v-10.9h63zm-71.5-7.8h-62.6l-3.1-62.3-1-19.5h54.3l12.4 81.8zm.6 7.8v10.9c0 8.4-3.3 16.3-9.2 22.3-6 6-13.9 9.2-22.3 9.2-17.4 0-31.5-14.1-31.5-31.5v-10.9h63zm140.2-7.8h-62.3l-20.5-81.9h54l28.8 81.9zM43.4 25.7c0-3.6 4.1-6.6 8.9-6.6h407.5c4.8 0 8.9 3 8.9 6.6V62H43.4V25.7zm-1.2 44.2h54l-20.5 81.9H13.4l28.8-81.9zM11.8 170.5v-10.9h63v10.9c0 8.4-3.3 16.3-9.2 22.3-6 6-13.9 9.2-22.3 9.2-17.3 0-31.5-14.1-31.5-31.5zM29.9 452h452.2v16.5H29.9V452zm474.2 41H7.9v-16.5h496.2V493z"/></g></symbol><symbol viewBox="0 0 504 504" xml:space="preserve" id="video-player-icon" xmlns="http://www.w3.org/2000/svg"><path style="fill:#d7f9ff" d="M45.6 426.6h416.8c20.8 0 37.6-18.8 37.6-39.6v-55.6H8V387c0 20.8 16.8 39.6 37.6 39.6zm57.2-74c14.4 0 25.6 11.6 25.6 25.6s-11.6 25.6-25.6 25.6c-14.4 0-25.6-11.6-25.6-25.6-.4-14 11.2-25.6 25.6-25.6z"/><path style="fill:#fff3d6" d="M462.4 81.4H45.6C24.8 81.4 8 96.2 8 117v218.4h492V117c0-20.4-16.8-35.6-37.6-35.6zM323.6 222.6 241.2 279c-3.6 2.4-7.2 3.6-10.4 3.6-6.8 0-11.2-4.8-12-12.8V147c.8-7.6 5.2-12.8 12-12.8 3.2 0 6.8 1.2 10.4 3.6l82.8 56.4c5.6 3.6 8.4 8.8 8.4 14.4-.4 5.2-3.2 10.4-8.8 14z"/><path style="fill:#d7f9ff" d="M230.4 278.6c2.4 0 5.2-1.2 8.4-2.8l82.4-56c4.4-3.2 6.8-7.2 6.8-11.2s-2.4-8-6.8-10.8l-82.8-56.4c-2.8-2-5.6-2.8-8.4-2.8-5.2 0-8.4 4.4-8.4 11.2v118c.8 6.4 3.6 10.8 8.8 10.8z"/><path style="fill:#ccc" d="M218.4 149v-2.4 2.4zM218.4 267.4v2.4-2.4z"/><path style="fill:#fff3d6" d="M102.8 356.6c-12 0-22 9.6-22 22 0 12 9.6 22 22 22s22-9.6 22-22c-.4-12.4-10-22-22-22z"/><path d="M460.4 430.6H43.6C19.6 430.6 0 411 0 387V117c0-24 19.6-43.6 43.6-43.6h416.8c24 0 43.6 19.6 43.6 43.6v270c0 24.4-19.6 43.6-43.6 43.6zM43.6 81.8C24 81.8 8 97.8 8 117.4v270C8 407 24 423 43.6 423h416.8c19.6 0 35.6-16 35.6-35.6v-270c0-19.6-16-35.6-35.6-35.6H43.6z"/><path d="M229.2 284.6c-2.4 0-4.8-.4-6.8-1.6-5.2-2.8-8-8.4-8-15.6v-118c0-7.2 2.8-12.8 8-15.6 5.2-2.8 12.4-2 18.8 2.4l83.2 56.4c6 4 9.2 9.6 9.2 15.6 0 6.4-3.6 12-9.6 16.4L241.2 281c-4 2.4-8 3.6-12 3.6zm0-144.8c-1.2 0-2 .4-3.2.8-2.4 1.2-4 4.4-4 8.4v118c0 4 1.2 7.2 4 8.4 2.8 1.6 6.8.8 10.4-2l82.8-56.4c4-2.8 6-6 6-9.6 0-3.2-2-6.8-5.6-9.2l-83.2-56c-2.4-1.2-4.8-2.4-7.2-2.4zM75.6 383H40c-2.4 0-4-1.6-4-4s1.6-4 4-4h35.6c2.4 0 4 1.6 4 4s-2 4-4 4zM472.4 383H127.2c-2.4 0-4-1.6-4-4s1.6-4 4-4h345.2c2.4 0 4 1.6 4 4s-2 4-4 4zM392.8 335.4H4c-2.4 0-4-1.6-4-4s1.6-4 4-4h388.8c2.4 0 4 1.6 4 4s-1.6 4-4 4zM500 335.4h-51.6c-2.4 0-4-1.6-4-4s1.6-4 4-4H500c2.4 0 4 1.6 4 4s-1.6 4-4 4z"/><path d="M102.8 406.2c-15.2 0-28-12.4-28-28s12.4-28 28-28 28 12.4 28 28-12.8 28-28 28zm0-47.6c-10.8 0-20 8.8-20 20s8.8 20 20 20 20-8.8 20-20-9.2-20-20-20z"/></symbol><symbol fill="none" viewBox="0 0 369 247" id="what-we-do" xmlns="http://www.w3.org/2000/svg"><g clip-path="url(#ea)"><path fill-rule="evenodd" clip-rule="evenodd" d="M282.476 92.967c-.178-.13-.602-.176-.798-.215a12.962 12.962 0 0 0-2.497-.231c-2.574.003-5.189.256-7.72.693-1.607.278-3.549 1.212-5.148.704-2.784-.883-5.599-.84-8.241.421-2.415 1.154-4.249 3.345-5.319 5.712-.161.358-.816 1.672-1.002 2.559-.079.181-.155.364-.224.549a28.757 28.757 0 0 0-.532 1.598c-.069.228-.243.734-.036.831-.332.611-.625 1.24-.869 1.89-.711 1.891-1.489 3.964-1.738 5.967a9.302 9.302 0 0 0-.01 2.231c.042.367.025 1.106.274 1.385.528.593.8-.237.74-.632-.455-3.012.424-5.84 1.465-8.672.674-1.83 1.781-3.505 3.02-5.022 1.004-1.228 2.08-2.195 3.455-3.009 1.682-.995 3.48-1.8 5.262-2.607a61.22 61.22 0 0 1 3.549-1.506c.268-.102.689-.363.986-.364.628-.002 1.518.461 2.124.633 1.996.568 4.016 1.293 6.078 1.583 1.323.186 2.562-.023 3.799-.464.126-.045.338-.16.597-.325.919-.354 1.787-.798 2.544-1.44.436-.369.831-.846 1.192-1.283a.673.673 0 0 0 .157-.423c.082-.043.136-.093.148-.15.09-.43-.73-.439-1.256-.413Z" fill="#89C5CC"/><path fill-rule="evenodd" clip-rule="evenodd" d="M278.998 104.929c-1.146-.248-2.41-.229-3.577-.208-6.257.084-12.401 3.019-16.4 7.71-3.404 3.993-4.34 8.957-5.013 13.975-.066.499-.095.994-.132 1.493a4.181 4.181 0 0 1-.034.293c-.264.234-.403.507-.246.807a32.994 32.994 0 0 0-1.498 3.895c-1.245 3.933-2.511 7.941-1.732 12.077.183-2.276.566-4.603 1.025-6.842.026-.128.054-.256.084-.383l.009-.04c.162-.685.373-1.35.629-2.005l.009-.021.105-.258c.073-.177.149-.354.229-.53.027-.06.053-.121.078-.182.374-.907.531-1.929.866-2.867.08-.214.164-.426.251-.638l.016-.037a28.12 28.12 0 0 1 .775-1.687c.151-.112.231-.39.361-.643.027-.05.237-.382.299-.573.163-.312.325-.625.49-.937l-.015.006.492-.895.109-.196.176-.312a58.733 58.733 0 0 1 1.732-2.865c.216-.336.731-.817.829-1.194.004-.014.005-.027.007-.041 1.309-1.822 2.817-3.503 4.625-4.835-.218.234-.683 1.028-.806 1.185-.376.482-.784.93-1.194 1.384-.733.813-1.449 1.651-2.085 2.538-1.164 1.622-2.168 3.329-3.117 5.07-.009.01-.019.019-.027.03-.477.583-.777 1.463-1.121 2.13 1.359-.624 2.861-1.03 4.256-1.584a35.299 35.299 0 0 0 4.049-1.888c1.736-.96 3.537-2.043 5.177-3.269 1.879-1.155 3.459-2.746 4.853-4.414 1.649-1.975 3.161-3.966 4.096-6.363a18.97 18.97 0 0 0 1.035-3.649c.009-.054.021-.113.034-.174.219-.43.415-.868.58-1.317.261-.712.877-1.495-.279-1.746Z" fill="#56919C"/><path fill-rule="evenodd" clip-rule="evenodd" d="M289.387 144.507c-.667-1.513-2.08-2.683-3.467-3.55-5.42-3.386-11.773-4.554-18.051-4.3-3.44.139-6.907.887-10.175 1.88-1.887.573-3.718 1.323-5.359 2.405-1.108.73-2.095 1.595-3 2.559-1.103 1.174-2.168 2.409-3.114 3.712-.373.513-2.463 3.165-1.603 3.769a1.405 1.405 0 0 0-.124.196c-3.824 1.821-7.235 4.624-10.443 7.297-2.793 2.326-5.495 4.743-7.945 7.423a114.714 114.714 0 0 0-10.735 13.718c-.489.727-.978 1.453-1.466 2.181-.547.815-1.292 1.681-1.677 2.591-.335.792.355 1.072.831.372.574-.845 1.11-1.716 1.69-2.558a687.95 687.95 0 0 1 2.313-3.351c5.38-7.74 11.762-14.692 19.179-20.544 3.002-2.369 6.062-4.474 9.438-6.29 2.969-1.597 6.175-2.935 9.317-4.085 3.053-1.117 6.141-2.141 9.368-2.687 2.619-.443 5.285-.589 7.947-.611 3.381-.028 6.734-.023 10.092.433 1.746.236 3.477.554 5.218.822.313.048.642.111.956.136 1.049.085 1.173-.694.81-1.518Z" fill="#C1DEE2"/><path fill-rule="evenodd" clip-rule="evenodd" d="M82.142 113.831c-.505.397-1 .801-1.484 1.223-.369.321-1.02.705-1.153 1.191-.138.505.297.979.64 1.284 1.813 1.616 3.855 2.709 6.369 2.89 3.869.28 7.237-.677 10.594-2.56 2.358-1.323 3.921-3.279 4.262-5.921 2.809 1.13 5.525 2.688 7.833 4.601 1.139.944 2.12 1.989 3.028 3.148a37.003 37.003 0 0 1 1.665 2.28c.227.34.457.944.831 1.14.44.23.971-.131.949-.604-.018-.394-.457-.851-.662-1.173a42.681 42.681 0 0 0-1.052-1.586 34.4 34.4 0 0 0-1.865-2.46c-1.494-1.77-3.395-3.232-5.367-4.48-3.781-2.392-7.93-3.899-12.531-4.027-2.83-.078-5.21.858-7.629 2.256-1.506.87-3.06 1.726-4.427 2.798Z" fill="#C7D1D9"/><path fill-rule="evenodd" clip-rule="evenodd" d="M112.551 113.947c-2.941-3.035-5.892-6.031-9.178-8.703-1.936-1.575-3.977-3.006-5.975-4.499.23.202.457.41.678.624-.624-.425-1.441-.664-2.102-1.057-.738-.438-1.443-.94-2.135-1.444-1.35-.986-2.68-1.99-4.068-2.925-1.546-1.04-3.148-2.002-4.721-3.004-1.335-.85-2.685-1.78-4.114-2.476-.778-.379-1.558-.827-2.34-1.223-.26-.132-2.914-1.81-2.907-1.816.146-.11 1.481.518 1.688.603.603.247 1.18.542 1.76.836a7.712 7.712 0 0 1-.707-1.986c-.043-.214-.382-1.778-.208-1.909.086-.065.933 2.732.976 3 .035.22.03.534.102.74.115.335.11.234.363.422.465.345 1.083.56 1.586.849.272.151 1.112.754 1.619.926 1.532.745 3.085 1.892 4.54 2.845a10.75 10.75 0 0 1-.885-2.26c-.05-.188-.594-1.867-.462-1.966.148-.112 1.185 2.452 1.246 2.695.114.45.138.952.281 1.391.157.482.646.652 1.087.933a78.176 78.176 0 0 1 4.729 3.277c1.68-2.994-.257-6.61-1.89-9.124-1.178-1.811-2.763-3.364-4.436-4.72-2.234-1.808-4.789-3.254-7.34-4.576-2.975-1.54-6.189-2.495-9.53-2.935-1.748-.231-3.535-.225-5.3-.15-.863.035-1.69.15-2.517.431a8.224 8.224 0 0 0-1.083.467c-.267.137-.912.28-1.065.484-1.261 1.645-1.907 3.284-1.808 5.351.093 1.957.71 3.915 1.547 5.66.932 1.944 2.131 3.709 3.7 5.189 1.195 1.13 2.533 2.113 3.862 3.083 4.726 3.451 10.718 6.452 16.838 5.681 1.982-.249 3.866-.943 5.627-1.887a14.09 14.09 0 0 0 1.22-.71c.263-.177.97-.974 1.235-1.003.364-.04 1.148.703 1.49.928a140.45 140.45 0 0 1 7.599 5.411c2.634 2.004 5.138 4.144 7.568 6.384 1.034.954 2.061 1.909 3.065 2.894.234.229.805 1.073 1.229 1.111.268.024.448-.205.41-.453-.067-.432-.973-1.078-1.274-1.389Z" fill="#C1DEE2"/><mask id="eb" style="mask-type:luminance" maskUnits="userSpaceOnUse" x="81" y="53" width="72" height="101"><path d="M152.244 53.368H81.695v100.468h70.549V53.368Z" fill="#fff"/></mask><g mask="url(#eb)"><path fill-rule="evenodd" clip-rule="evenodd" d="M86.18 124.286c-.49 0-.978.01-1.467.035-.372.02-.942-.057-1.257.175-.327.241-.305.735-.254 1.083.27 1.844.931 3.479 2.312 4.786 2.127 2.011 4.564 3.033 7.448 3.488 2.027.32 3.897-.124 5.389-1.565 1.09 2.023 1.916 4.261 2.331 6.52.205 1.115.267 2.216.231 3.351a28.753 28.753 0 0 1-.141 2.176c-.034.314-.194.79-.071 1.088.144.348.632.382.85.085.182-.248.149-.734.186-1.027.062-.487.12-.974.161-1.463.067-.792.116-1.586.112-2.381-.008-1.785-.405-3.577-.948-5.272-1.042-3.251-2.732-6.141-5.36-8.408-1.616-1.394-3.466-1.958-5.565-2.261-1.306-.189-2.634-.41-3.958-.41Z" fill="#89C5CC"/><path fill-rule="evenodd" clip-rule="evenodd" d="M93.726 137.214c-5.282 0-8.839 4.257-10.52 8.681-.635 1.667-.783 3.499-1.028 5.249-.078.563-.049 1.419-.277 1.919-.083.182-.273.247-.182.495a.403.403 0 0 0 .325.271c.332.061.802-.301 1.087-.444 2.362-1.185 3.914-3.017 5.18-5.258.785-1.389 1.582-2.831 2.048-4.357.285-.932.45-1.913.548-2.879.039-.381.076-.771.073-1.153-.002-.38-.179-.581-.306-.912 1.762-.667 3.752-.849 5.537-.158 1.651.64 3.022 1.875 3.79 3.428.2.403.354.829.466 1.263.073.284.077.653.213.91.329.624 1.023.207.957-.373-.186-1.619-1.112-3.243-2.295-4.369-1.493-1.419-3.516-2.313-5.616-2.313Z" fill="#89C5CC"/><path d="M149.289 53.368H102.38a2.955 2.955 0 0 0-2.955 2.955v94.188a2.955 2.955 0 0 0 2.955 2.955h46.909a2.955 2.955 0 0 0 2.955-2.955V56.323a2.955 2.955 0 0 0-2.955-2.955Z" fill="#C7D1D9"/><path d="M125.65 147.556a5.54 5.54 0 1 0 0-11.081 5.54 5.54 0 0 0 0 11.081ZM120.848 60.016a.739.739 0 1 0 0-1.477.739.739 0 0 0 0 1.477ZM130.452 58.539h-6.28a.738.738 0 0 0 0 1.477h6.28a.738.738 0 0 0 0-1.477Z" fill="#fff"/><mask id="ec" style="mask-type:luminance" maskUnits="userSpaceOnUse" x="105" y="63" width="41" height="69"><path d="M145.965 63.71h-40.63v67.594h40.63V63.71Z" fill="#fff"/></mask><g mask="url(#ec)"><mask id="ed" style="mask-type:luminance" maskUnits="userSpaceOnUse" x="105" y="63" width="41" height="19"><path d="M145.965 63.71h-40.63v17.73h40.63V63.71Z" fill="#fff"/></mask><g mask="url(#ed)"><path d="M144.488 63.71h-37.676c-.816 0-1.477.662-1.477 1.477v14.775c0 .816.661 1.478 1.477 1.478h37.676c.816 0 1.477-.662 1.477-1.478V65.187c0-.815-.661-1.477-1.477-1.477Z" fill="#fff"/><mask id="ee" style="mask-type:luminance" maskUnits="userSpaceOnUse" x="108" y="69" width="20" height="8"><path d="M127.866 69.029h-19.207v7.092h19.207v-7.092Z" fill="#fff"/></mask><g mask="url(#ee)" fill="#C7D1D9"><path d="M126.758 69.029h-16.991c-.612 0-1.108.496-1.108 1.108v.443c0 .612.496 1.108 1.108 1.108h16.991c.612 0 1.108-.496 1.108-1.108v-.443c0-.612-.496-1.108-1.108-1.108ZM120.443 73.461h-10.676c-.612 0-1.108.496-1.108 1.109v.443c0 .612.496 1.108 1.108 1.108h10.676c.612 0 1.108-.496 1.108-1.108v-.444c0-.612-.496-1.108-1.108-1.108Z"/></g><path d="M141.623 75.16a2.585 2.585 0 1 0 0-5.17 2.585 2.585 0 0 0 0 5.17Z" fill="#C7D1D9"/><path d="M141.623 73.683a1.108 1.108 0 1 0 0-2.216 1.108 1.108 0 0 0 0 2.216Z" fill="#F2F2F2"/></g><mask id="ef" style="mask-type:luminance" maskUnits="userSpaceOnUse" x="105" y="84" width="41" height="15"><path d="M145.965 84.395h-40.63V98.06h40.63V84.395Z" fill="#fff"/></mask><g mask="url(#ef)"><path d="M144.488 84.395h-37.676c-.816 0-1.477.661-1.477 1.477v10.712c0 .816.661 1.477 1.477 1.477h37.676c.816 0 1.477-.661 1.477-1.477V85.872c0-.816-.661-1.477-1.477-1.477Z" fill="#fff"/><mask id="eg" style="mask-type:luminance" maskUnits="userSpaceOnUse" x="119" y="88" width="20" height="6"><path d="M138.947 88.495H119.74v5.466h19.207v-5.466Z" fill="#fff"/></mask><g mask="url(#eg)" fill="#C7D1D9"><path d="M137.922 88.495h-17.157a1.025 1.025 0 0 0 0 2.05h17.157a1.025 1.025 0 0 0 0-2.05ZM131.607 91.911h-10.842a1.025 1.025 0 0 0 0 2.05h10.842a1.025 1.025 0 0 0 0-2.05Z"/></g><path d="M113.091 95.66a4.433 4.433 0 1 0 0-8.865 4.433 4.433 0 0 0 0 8.865Z" fill="#C5CFD6"/></g><mask id="eh" style="mask-type:luminance" maskUnits="userSpaceOnUse" x="105" y="101" width="41" height="14"><path d="M145.965 101.016h-40.63v13.667h40.63v-13.667Z" fill="#fff"/></mask><g mask="url(#eh)"><path d="M144.488 101.016h-37.676c-.816 0-1.477.662-1.477 1.478v10.711c0 .816.661 1.478 1.477 1.478h37.676c.816 0 1.477-.662 1.477-1.478v-10.711c0-.816-.661-1.478-1.477-1.478Z" fill="#fff"/><mask id="ei" style="mask-type:luminance" maskUnits="userSpaceOnUse" x="108" y="105" width="20" height="6"><path d="M127.866 105.116h-19.207v5.467h19.207v-5.467Z" fill="#fff"/></mask><g mask="url(#ei)" fill="#C7D1D9"><path d="M126.841 105.116h-17.157a1.025 1.025 0 0 0 0 2.05h17.157a1.025 1.025 0 0 0 0-2.05ZM120.526 108.533h-10.842a1.025 1.025 0 0 0 0 2.05h10.842a1.025 1.025 0 0 0 0-2.05Z"/></g><path d="M141.623 110.435a2.585 2.585 0 1 0 0-5.17 2.585 2.585 0 0 0 0 5.17Z" fill="#C7D1D9"/><path d="M141.623 108.958a1.109 1.109 0 1 0-.002-2.218 1.109 1.109 0 0 0 .002 2.218Z" fill="#F2F2F2"/></g><mask id="ej" style="mask-type:luminance" maskUnits="userSpaceOnUse" x="105" y="117" width="41" height="15"><path d="M145.965 117.638h-40.63v13.666h40.63v-13.666Z" fill="#fff"/></mask><g mask="url(#ej)"><path d="M144.488 117.638h-37.676c-.816 0-1.477.661-1.477 1.477v10.712c0 .816.661 1.477 1.477 1.477h37.676c.816 0 1.477-.661 1.477-1.477v-10.712c0-.816-.661-1.477-1.477-1.477Z" fill="#fff"/><mask id="ek" style="mask-type:luminance" maskUnits="userSpaceOnUse" x="119" y="121" width="20" height="7"><path d="M138.947 121.738H119.74v5.466h19.207v-5.466Z" fill="#fff"/></mask><g mask="url(#ek)" fill="#C7D1D9"><path d="M137.922 121.738h-17.157a1.025 1.025 0 0 0 0 2.05h17.157a1.025 1.025 0 0 0 0-2.05ZM131.607 125.154h-10.842a1.025 1.025 0 0 0 0 2.05h10.842a1.025 1.025 0 0 0 0-2.05Z"/></g><path d="M113.091 128.903a4.433 4.433 0 1 0 .001-8.865 4.433 4.433 0 0 0-.001 8.865Z" fill="#C5CFD6"/></g></g></g><mask id="el" style="mask-type:luminance" maskUnits="userSpaceOnUse" x="141" y="70" width="113" height="116"><path d="M253.081 70.359H141.533v114.873h111.548V70.359Z" fill="#fff"/></mask><g mask="url(#el)"><path d="M250.127 70.359H144.488a2.955 2.955 0 0 0-2.955 2.955v108.963a2.955 2.955 0 0 0 2.955 2.955h105.639a2.955 2.955 0 0 0 2.954-2.955V73.314a2.955 2.955 0 0 0-2.954-2.955Z" fill="#F2F2F2"/><path d="M244.955 84.764h-17.36a2.955 2.955 0 0 0-2.955 2.955v21.054a2.955 2.955 0 0 0 2.955 2.955h17.36a2.955 2.955 0 0 0 2.955-2.955V87.719a2.955 2.955 0 0 0-2.955-2.955Z" fill="#fff"/><path d="M236.275 100.249c2.938 0 5.319-2.391 5.319-5.341s-2.381-5.342-5.319-5.342c-2.937 0-5.319 2.391-5.319 5.341s2.382 5.342 5.319 5.342ZM243.584 101.585h-14.618a1 1 0 1 0 0 2.003h14.618a1.002 1.002 0 1 0 0-2.003ZM240.925 104.923h-9.299a1.001 1.001 0 1 0 0 2.003h9.299a1.002 1.002 0 1 0 0-2.003Z" fill="#C7D1D9"/><path d="M141.533 73.314a2.955 2.955 0 0 1 2.955-2.955h105.639a2.955 2.955 0 0 1 2.954 2.955v5.91H141.533v-5.91Z" fill="#C5CFD6"/><path d="M146.334 77.007a1.478 1.478 0 1 0 0-2.956 1.478 1.478 0 0 0 0 2.956ZM150.767 77.007a1.477 1.477 0 1 0 0-2.954 1.477 1.477 0 0 0 0 2.954ZM155.199 77.007a1.478 1.478 0 1 0 0-2.956 1.478 1.478 0 0 0 0 2.956Z" fill="#F2F2F2"/><mask id="em" style="mask-type:luminance" maskUnits="userSpaceOnUse" x="224" y="114" width="24" height="65"><path d="M247.91 114.313h-23.27v64.27h23.27v-64.27Z" fill="#fff"/></mask><g mask="url(#em)"><path d="M244.955 114.313h-17.36a2.955 2.955 0 0 0-2.955 2.955v58.36a2.955 2.955 0 0 0 2.955 2.955h17.36a2.955 2.955 0 0 0 2.955-2.955v-58.36a2.955 2.955 0 0 0-2.955-2.955Z" fill="#fff"/><mask id="en" style="mask-type:luminance" maskUnits="userSpaceOnUse" x="231" y="120" width="11" height="54"><path d="M241.262 120.962h-9.973v52.819h9.973v-52.819Z" fill="#fff"/></mask><g mask="url(#en)"><path d="M239.784 120.962h-7.018c-.816 0-1.477.661-1.477 1.477v5.541c0 .816.661 1.477 1.477 1.477h7.018c.816 0 1.478-.661 1.478-1.477v-5.541c0-.816-.662-1.477-1.478-1.477Z" fill="#C7D1D9"/><path d="M239.784 132.412h-7.018c-.816 0-1.477.662-1.477 1.478v5.171c0 .816.661 1.477 1.477 1.477h7.018c.816 0 1.478-.661 1.478-1.477v-5.171c0-.816-.662-1.478-1.478-1.478Z" fill="#AFB9C5"/><path d="M239.784 143.493h-7.018c-.816 0-1.477.662-1.477 1.478v5.171c0 .816.661 1.477 1.477 1.477h7.018c.816 0 1.478-.661 1.478-1.477v-5.171c0-.816-.662-1.478-1.478-1.478ZM239.784 165.655h-7.018c-.816 0-1.477.662-1.477 1.478v5.171c0 .816.661 1.477 1.477 1.477h7.018c.816 0 1.478-.661 1.478-1.477v-5.171c0-.816-.662-1.478-1.478-1.478Z" fill="#C7D1D9"/><path d="M239.784 154.574h-7.018c-.816 0-1.477.662-1.477 1.478v5.171c0 .816.661 1.477 1.477 1.477h7.018c.816 0 1.478-.661 1.478-1.477v-5.171c0-.816-.662-1.478-1.478-1.478Z" fill="#C5CFD6"/></g></g><mask id="eo" style="mask-type:luminance" maskUnits="userSpaceOnUse" x="147" y="86" width="72" height="94"><path d="M218.361 86.61h-70.918v93.081h70.918v-93.08Z" fill="#fff"/></mask><g mask="url(#eo)"><mask id="ep" style="mask-type:luminance" maskUnits="userSpaceOnUse" x="147" y="86" width="72" height="17"><path d="M218.361 86.61h-70.918v15.514h70.918V86.611Z" fill="#fff"/></mask><g mask="url(#ep)"><path d="M216.884 86.61H148.92c-.816 0-1.477.662-1.477 1.478v12.559c0 .816.661 1.477 1.477 1.477h67.964c.816 0 1.477-.661 1.477-1.477V88.088c0-.816-.661-1.477-1.477-1.477Z" fill="#fff"/><mask id="eq" style="mask-type:luminance" maskUnits="userSpaceOnUse" x="150" y="91" width="51" height="7"><path d="M200.262 91.265h-49.495v6.205h49.495v-6.205Z" fill="#fff"/></mask><g mask="url(#eq)" fill="#C7D1D9"><path d="M199.154 91.265h-47.279c-.612 0-1.108.496-1.108 1.108v.11c0 .613.496 1.109 1.108 1.109h47.279c.612 0 1.108-.496 1.108-1.108v-.111c0-.612-.496-1.108-1.108-1.108ZM182.881 95.143h-31.006c-.612 0-1.108.496-1.108 1.108v.111c0 .612.496 1.108 1.108 1.108h31.006c.612 0 1.109-.496 1.109-1.108v-.11c0-.613-.497-1.109-1.109-1.109Z"/></g><path d="M210.782 96.953a2.585 2.585 0 1 0 0-5.17 2.585 2.585 0 0 0 0 5.17Z" fill="#C7D1D9"/><path d="M210.782 95.476a1.108 1.108 0 1 0 0-2.216 1.108 1.108 0 0 0 0 2.216Z" fill="#F2F2F2"/></g><mask id="er" style="mask-type:luminance" maskUnits="userSpaceOnUse" x="147" y="105" width="72" height="13"><path d="M218.361 105.079h-70.919v12.559h70.919v-12.559Z" fill="#fff"/></mask><g mask="url(#er)"><path d="M216.883 105.079H148.92c-.816 0-1.478.662-1.478 1.478v9.603c0 .816.662 1.478 1.478 1.478h67.963c.816 0 1.478-.662 1.478-1.478v-9.603c0-.816-.662-1.478-1.478-1.478Z" fill="#fff"/><mask id="es" style="mask-type:luminance" maskUnits="userSpaceOnUse" x="150" y="108" width="51" height="6"><path d="M200.262 108.847h-49.495v5.023h49.495v-5.023Z" fill="#fff"/></mask><g mask="url(#es)" fill="#C7D1D9"><path d="M199.32 108.847h-47.611a.941.941 0 1 0 0 1.883h47.611a.941.941 0 1 0 0-1.883ZM183.048 111.986h-31.339a.942.942 0 1 0 0 1.884h31.339a.942.942 0 0 0 0-1.884Z"/></g><path d="M210.782 113.944a2.585 2.585 0 1 0 0-5.17 2.585 2.585 0 0 0 0 5.17Z" fill="#C7D1D9"/><path d="M210.782 112.467a1.109 1.109 0 1 0-.002-2.218 1.109 1.109 0 0 0 .002 2.218Z" fill="#F2F2F2"/></g><mask id="et" style="mask-type:luminance" maskUnits="userSpaceOnUse" x="147" y="120" width="72" height="14"><path d="M218.361 120.593h-70.919v12.558h70.919v-12.558Z" fill="#fff"/></mask><g mask="url(#et)"><path d="M216.883 120.593H148.92c-.816 0-1.478.661-1.478 1.477v9.604c0 .816.662 1.477 1.478 1.477h67.963c.816 0 1.478-.661 1.478-1.477v-9.604c0-.816-.662-1.477-1.478-1.477Z" fill="#fff"/><mask id="eu" style="mask-type:luminance" maskUnits="userSpaceOnUse" x="150" y="124" width="51" height="6"><path d="M200.262 124.36h-49.495v5.024h49.495v-5.024Z" fill="#fff"/></mask><g mask="url(#eu)" fill="#C7D1D9"><path d="M199.32 124.36h-47.611a.942.942 0 1 0 0 1.884h47.611a.942.942 0 0 0 0-1.884ZM183.048 127.5h-31.339a.941.941 0 1 0 0 1.884h31.339a.942.942 0 0 0 0-1.884Z"/></g><path d="M210.782 129.457a2.585 2.585 0 1 0 0-5.171 2.586 2.586 0 0 0 0 5.171Z" fill="#C7D1D9"/><path d="M210.782 127.98a1.108 1.108 0 1 0 0-2.216 1.108 1.108 0 0 0 0 2.216Z" fill="#AFB9C5"/></g><mask id="ev" style="mask-type:luminance" maskUnits="userSpaceOnUse" x="147" y="167" width="72" height="13"><path d="M218.361 167.133h-70.919v12.558h70.919v-12.558Z" fill="#fff"/></mask><g mask="url(#ev)"><path d="M216.883 167.133H148.92c-.816 0-1.478.661-1.478 1.477v9.604c0 .816.662 1.477 1.478 1.477h67.963c.816 0 1.478-.661 1.478-1.477v-9.604c0-.816-.662-1.477-1.478-1.477Z" fill="#fff"/><mask id="ew" style="mask-type:luminance" maskUnits="userSpaceOnUse" x="150" y="170" width="51" height="6"><path d="M200.262 170.9h-49.495v5.024h49.495V170.9Z" fill="#fff"/></mask><g mask="url(#ew)" fill="#C7D1D9"><path d="M199.32 170.9h-47.611a.942.942 0 1 0 0 1.884h47.611a.942.942 0 0 0 0-1.884ZM183.048 174.04h-31.339a.942.942 0 1 0 0 1.884h31.339a.942.942 0 0 0 0-1.884Z"/></g><path d="M210.782 175.998a2.585 2.585 0 1 0 0-5.17 2.585 2.585 0 0 0 0 5.17Z" fill="#C7D1D9"/><path d="M210.782 174.52a1.108 1.108 0 1 0 0-2.216 1.108 1.108 0 0 0 0 2.216Z" fill="#F2F2F2"/></g><mask id="ex" style="mask-type:luminance" maskUnits="userSpaceOnUse" x="147" y="151" width="72" height="14"><path d="M218.361 151.619h-70.919v12.559h70.919v-12.559Z" fill="#fff"/></mask><g mask="url(#ex)"><path d="M216.883 151.619H148.92c-.816 0-1.478.662-1.478 1.478v9.603c0 .816.662 1.478 1.478 1.478h67.963c.816 0 1.478-.662 1.478-1.478v-9.603c0-.816-.662-1.478-1.478-1.478Z" fill="#fff"/><mask id="ey" style="mask-type:luminance" maskUnits="userSpaceOnUse" x="150" y="155" width="51" height="6"><path d="M200.262 155.387h-49.495v5.023h49.495v-5.023Z" fill="#fff"/></mask><g mask="url(#ey)" fill="#C7D1D9"><path d="M199.32 155.387h-47.611a.942.942 0 1 0 0 1.884h47.611a.942.942 0 0 0 0-1.884ZM183.048 158.527h-31.339a.94.94 0 1 0 0 1.883h31.339a.942.942 0 1 0 0-1.883Z"/></g><path d="M210.782 160.484a2.585 2.585 0 1 0 0-5.171 2.586 2.586 0 0 0 0 5.171Z" fill="#C7D1D9"/><path d="M210.782 159.007a1.108 1.108 0 1 0 0-2.216 1.108 1.108 0 0 0 0 2.216Z" fill="#F2F2F2"/></g><mask id="ez" style="mask-type:luminance" maskUnits="userSpaceOnUse" x="147" y="136" width="72" height="13"><path d="M218.361 136.106h-70.919v12.558h70.919v-12.558Z" fill="#fff"/></mask><g mask="url(#ez)"><path d="M216.883 136.106H148.92c-.816 0-1.478.661-1.478 1.477v9.604c0 .816.662 1.477 1.478 1.477h67.963c.816 0 1.478-.661 1.478-1.477v-9.604c0-.816-.662-1.477-1.478-1.477Z" fill="#fff"/><mask id="eA" style="mask-type:luminance" maskUnits="userSpaceOnUse" x="150" y="139" width="51" height="6"><path d="M200.262 139.874h-49.495v5.023h49.495v-5.023Z" fill="#fff"/></mask><g mask="url(#eA)" fill="#C7D1D9"><path d="M199.32 139.874h-47.611a.94.94 0 1 0 0 1.883h47.611a.942.942 0 1 0 0-1.883ZM183.048 143.013h-31.339a.942.942 0 1 0 0 1.884h31.339a.942.942 0 0 0 0-1.884Z"/></g><path d="M210.782 144.971a2.585 2.585 0 1 0 0-5.17 2.585 2.585 0 0 0 0 5.17Z" fill="#C7D1D9"/><path d="M210.782 143.493a1.108 1.108 0 1 0 0-2.216 1.108 1.108 0 0 0 0 2.216Z" fill="#F2F2F2"/></g></g></g><path fill-rule="evenodd" clip-rule="evenodd" d="M44.358 155.763c6.185 10.429 13.388 20.526 17.714 31.928a169.088 169.088 0 0 0-.566-4.027c-1.098-7.106-2.462-14.161-3.895-21.208a634.2 634.2 0 0 0-2.294-10.736c-.426-1.92-.847-3.841-1.282-5.759-.105-.465-.195-1.276-.327-2.098 4.204 13.865 8.258 27.741 11.224 41.94.389 1.863.72 3.723.992 5.581.092-.424.183-.848.284-1.27 1.2-5.064 3-10.088 5.143-14.823 1.024-2.265 2.2-4.48 3.587-6.544.864-1.286 2.901-2.815 3.69-4.133-4.311 7.946-5.868 17.889-8.357 26.528-.607 2.108-1.219 4.212-1.818 6.321 3.754-7.566 9.578-13.781 17.674-16.475-9.8 6.508-15.68 17.906-19.64 29.564-.014.138-.03.276-.043.415 1.166-2.224 2.634-4.235 4.624-5.644 4.26-3.015 8.985-2.137 13.117.45-3.243-2.072-9.104-.185-11.832 1.92-1.953 1.508-3.623 3.53-5.072 5.503-.348.473-.822 1.025-1.322 1.613a73.043 73.043 0 0 1-3.465 13.639c.267-1.295.074-3.366.148-4.332l.022-.313c-.246.988-.484 1.965-.713 2.925.455-1.833.703-3.747.896-5.681.05-.831.098-1.662.15-2.493a81.207 81.207 0 0 0-.19-4.747c-.388-1.541-.822-2.995-1.18-4.204-1.292-4.363-3.185-8.542-5.516-12.441a49.085 49.085 0 0 0-7.61-9.697c-1.583-1.571-3.241-3.066-4.875-4.583-.591-.549-1.648-1.897-2.561-2.6 6.653 3.687 13.502 7.675 18.355 13.615a149.03 149.03 0 0 0-1.84-6.483c-3.317-10.765-7.506-21.921-13.222-31.651Z" fill="#C7D1D9"/><path d="M64.704 236.574c7.548 0 13.667-4.879 13.667-10.896 0-6.018-6.119-10.897-13.667-10.897s-13.666 4.879-13.666 10.897c0 6.017 6.118 10.896 13.666 10.896Z" fill="#C5CFD6"/><path d="M284.108 59.832a.923.923 0 1 0-1.846 0v6.279a.923.923 0 1 0 1.846 0v-6.28ZM288.91 54.291a.923.923 0 1 0-1.847 0v11.82a.924.924 0 0 0 1.847 0V54.29ZM293.712 51.706a.924.924 0 0 0-1.847 0V66.11a.923.923 0 1 0 1.847 0V51.706ZM298.144 54.291a.923.923 0 1 0-1.847 0v11.82a.924.924 0 0 0 1.847 0V54.29Z" fill="#C7D1D9"/><path d="M302.946 49.12a.923.923 0 1 0-1.847 0v16.99a.924.924 0 0 0 1.847 0V49.12Z" fill="#C5CFD6"/><path fill-rule="evenodd" clip-rule="evenodd" d="M27.029 138.67c0-3.644 2.992-6.627 6.648-6.627v6.627l-4.543 4.823a6.518 6.518 0 0 1-2.105-4.823Z" fill="#F2F2F2"/><path fill-rule="evenodd" clip-rule="evenodd" d="M33.524 138.322h6.802c0 1.736-.717 3.362-1.851 4.544a6.9 6.9 0 0 1-4.95 2.105c-1.776 0-3.402-.701-4.65-1.81l4.65-4.839Z" fill="#AFB9C5"/><path fill-rule="evenodd" clip-rule="evenodd" d="M40.326 138.692c0-3.656-2.993-6.649-6.649-6.649v6.649h6.649Zm-9.973-6.649 2.66 5.984-5.984-2.66c.591-1.551 1.92-2.732 3.324-3.324Z" fill="#C5CFD6"/><path fill-rule="evenodd" clip-rule="evenodd" d="M311.491 155.254a3.544 3.544 0 0 1-2.561 1.084c-1.942 0-3.516-1.534-3.516-3.426 0-1.892 1.574-3.426 3.516-3.426v-6.362c-5.525 0-10.047 4.406-10.047 9.788 0 5.383 4.522 9.788 10.047 9.788 2.903 0 5.526-1.196 7.313-3.099l-4.752-4.347Z" fill="#F2F2F2"/><path fill-rule="evenodd" clip-rule="evenodd" d="M308.856 143.124v6.482a3.49 3.49 0 0 1 3.49 3.491h6.483c0-5.484-4.489-9.973-9.973-9.973Z" fill="#AFB9C5"/><path fill-rule="evenodd" clip-rule="evenodd" d="M312.09 153.097c0 1.101-.543 2.08-1.387 2.712l4.151 5.045c2.417-1.807 3.975-4.606 3.975-7.757h-6.739Z" fill="#C5CFD6"/><path fill-rule="evenodd" clip-rule="evenodd" d="M262.268 52.41a2.815 2.815 0 0 1-2.016.838c-1.528 0-2.768-1.187-2.768-2.65 0-1.464 1.24-2.65 2.768-2.65v-4.922c-4.349 0-7.909 3.408-7.909 7.571 0 4.164 3.56 7.572 7.909 7.572 2.285 0 4.35-.925 5.757-2.397l-3.741-3.362Z" fill="#F2F2F2"/><path fill-rule="evenodd" clip-rule="evenodd" d="M260.099 43.026v5.041c1.5 0 2.715 1.216 2.715 2.715h5.042c0-4.265-3.491-7.756-7.757-7.756Z" fill="#AFB9C5"/><path fill-rule="evenodd" clip-rule="evenodd" d="M262.955 50.782a2.62 2.62 0 0 1-1.009 2.067l3.02 3.843a7.49 7.49 0 0 0 2.89-5.91h-4.901ZM55.103 51.516a.146.146 0 0 1-.005.012c.002-.004.005-.02.005-.012Z" fill="#C5CFD6"/><path fill-rule="evenodd" clip-rule="evenodd" d="M55.1 51.522v.003c0-.003.006-.015 0-.003Z" fill="#C5CFD6"/><path fill-rule="evenodd" clip-rule="evenodd" d="M55.126 51.459c-.005.015-.012.029-.018.044l.009-.021c-.078.193-.028.068.009-.023ZM55.11 51.504l-.01.02.01-.02Z" fill="#C5CFD6"/><path fill-rule="evenodd" clip-rule="evenodd" d="M55.097 51.527c.021-.035-.005.01 0 0ZM55.1 51.522l.002-.002-.002.002Z" fill="#C5CFD6"/><path d="M69.506 34.16h-28.81c-.817 0-1.478.662-1.478 1.478v18.1c0 .815.661 1.477 1.477 1.477h28.811c.816 0 1.478-.662 1.478-1.478V35.638c0-.816-.662-1.477-1.478-1.477Z" fill="#C7D1D9"/><path fill-rule="evenodd" clip-rule="evenodd" d="m51.111 40.07-9.307 15.145H60.42L51.11 40.07Z" fill="#AFB9C5"/><path fill-rule="evenodd" clip-rule="evenodd" d="M60.253 44.109 52.11 55.215h16.289l-8.145-11.106Z" fill="#C5CFD6"/><path d="M63.965 44.134a2.955 2.955 0 1 0 0-5.91 2.955 2.955 0 0 0 0 5.91Z" fill="#fff"/><path fill-rule="evenodd" clip-rule="evenodd" d="m268.962 192.983.005.013c-.002-.004-.005-.02-.005-.013Z" fill="#C5CFD6"/><path fill-rule="evenodd" clip-rule="evenodd" d="m268.965 192.989.001.004c0-.004-.007-.015-.001-.004ZM268.94 192.926l.017.044-.009-.02a.902.902 0 0 0-.008-.024Z" fill="#C5CFD6"/><path fill-rule="evenodd" clip-rule="evenodd" d="m268.956 192.971.009.021c.022.042-.009-.021-.009-.021Z" fill="#C5CFD6"/><path fill-rule="evenodd" clip-rule="evenodd" d="M268.968 192.995c.005.009-.021-.035 0 0Z" fill="#C5CFD6"/><path fill-rule="evenodd" clip-rule="evenodd" d="m268.965 192.99-.001-.002a.003.003 0 0 1 .001.002Z" fill="#C5CFD6"/><path d="M244.217 164.547h49.495c.816 0 1.477.662 1.477 1.478v31.765c0 .816-.661 1.478-1.477 1.478h-49.495a1.478 1.478 0 0 1-1.478-1.478v-31.765c0-.816.662-1.478 1.478-1.478Z" fill="#C7D1D9"/><path fill-rule="evenodd" clip-rule="evenodd" d="m275.714 174.52 15.164 24.748H260.55l15.164-24.748Z" fill="#AFB9C5"/><path fill-rule="evenodd" clip-rule="evenodd" d="m260.079 181.149 13.406 18.119h-26.812l13.406-18.119Z" fill="#C5CFD6"/><path d="M254.374 181.169a4.986 4.986 0 1 1 0-9.973 4.986 4.986 0 0 1 0 9.973Z" fill="#fff"/><path fill-rule="evenodd" clip-rule="evenodd" d="M181.031 116.62c2.392 1.442 4.742 2.138 5.845 1.854 2.767-.713 3.021-10.833.88-14.823-2.14-3.99-13.143-5.728-13.698 2.176-.193 2.744.959 5.192 2.661 7.19l-3.051 14.224h8.864l-1.501-10.621Z" fill="#D4A181"/><path fill-rule="evenodd" clip-rule="evenodd" d="M173.54 105.785a5.541 5.541 0 1 1 4.929-5.586c4.453-1.543 10.232.26 9.459 3.876-.475 2.219-2.951 3.376-5.479 4.558l-.353.165a2.283 2.283 0 0 0-1.984-1.133c-1.256 0-2.274.992-2.274 2.216 0 .441.132.852.36 1.197-.89.774-1.518 1.706-1.67 2.915-1.435 0-3.753-4.212-2.988-8.208Z" fill="#4A312C"/><path fill-rule="evenodd" clip-rule="evenodd" d="M166.518 157.899c.666 9.09 43.572 35.852 43.822 36.603.167.5-13.355 31.648-13.355 31.648l3.751 1.457s20.74-32.987 19.675-36.502c-1.526-5.033-33.29-33.11-33.29-33.11l-20.603-.096Z" fill="#D4A181"/><path fill-rule="evenodd" clip-rule="evenodd" d="M166.518 157.899c.666 9.09 43.572 35.852 43.822 36.603.167.5-13.355 31.648-13.355 31.648l3.751 1.457s20.74-32.987 19.675-36.502c-1.526-5.033-33.29-33.11-33.29-33.11l-20.603-.096Z" fill="#000" fill-opacity=".1"/><path fill-rule="evenodd" clip-rule="evenodd" d="m197.972 221.46 6.124 2.229c12.912-14.569 17.973-26.589 17.05-32.714-.923-6.124-33.175-33.054-33.175-33.054h-21.892c.747 21.051 40.515 36.661 41.047 37.558.532.897-4.703 9.683-9.154 25.981Z" fill="#00576B"/><path fill-rule="evenodd" clip-rule="evenodd" d="M196.708 225.396c-.312-.299-.815-.295-1.092.037-.506.605-1.226 1.526-1.44 2.115-.342.939-.685 2.854-.685 2.854l19.577 7.126s1.681-2.245.11-3.045c-1.571-.799-2.599-1.358-2.599-1.358l-7.623-7.368a.37.37 0 0 0-.529.017l-1.101 1.206s-1.781.156-2.732-.19c-.58-.211-1.362-.893-1.886-1.394Z" fill="#E4E4E4"/><path fill-rule="evenodd" clip-rule="evenodd" d="m171.451 157.899-19.113 45.885-18.785 38.792h4.432l48.49-84.677h-15.024Z" fill="#D4A181"/><path fill-rule="evenodd" clip-rule="evenodd" d="M134.311 240.372c-.395-.173-.866.003-1.013.409-.269.742-.63 1.854-.63 2.481 0 .999.333 2.915.333 2.915h20.833s.812-2.684-.938-2.898c-1.749-.214-2.907-.387-2.907-.387l-9.683-4.316a.37.37 0 0 0-.492.196l-.622 1.51s-1.62.756-2.632.756c-.617 0-1.585-.374-2.249-.666Z" fill="#E4E4E4"/><path fill-rule="evenodd" clip-rule="evenodd" d="m135.249 234.518 9.848 1.846c7.615-11.194 39.482-57.097 42.976-78.465h-21.924c-11.668 15.447-23.642 65.239-30.9 76.619Z" fill="#028CA1"/><path fill-rule="evenodd" clip-rule="evenodd" d="m213.81 161.827-11.782-8.652-2.604 6.438 11.667 4.839c3.3 3.876 5.145 5.492 5.535 4.847.33-.543.072-1.052-.165-1.52-.184-.365-.357-.706-.23-1.02.29-.716 2.506-.64 4.607-.479 2.1.161 1.488-.773.982-1.234-2.144-1.284-4.814-2.357-8.01-3.219Zm-61.788 15.245c1.082-2.196 4.768-23.598 4.768-23.598l7.719.03s-7.149 23.078-7.719 24.49c-.74 1.835.518 4.5 1.37 6.307.132.28.254.539.358.771-1.183.529-1.751-.111-2.35-.785-.677-.762-1.393-1.568-3.079-.784-.651.303-1.267.661-1.869 1.011-2.08 1.209-3.99 2.319-6.589.716-.412-.254-.863-1.212.228-1.959 2.717-1.864 6.634-5.125 7.163-6.199Z" fill="#D4A181"/><path fill-rule="evenodd" clip-rule="evenodd" d="m178.726 121.085 3.194-.548c11.85 10.237 16.718 29.904 31.244 40.322l-3.496 4.334c-25.2-3.12-31.446-27.109-30.942-44.108Z" fill="#BD7B00"/><path fill-rule="evenodd" clip-rule="evenodd" d="M164.803 161.223h28.26c1.292 0 1.049-1.865.862-2.806-2.154-10.859-10.565-22.565-10.565-38.024l-8.151-1.278c-6.743 10.844-9.075 24.195-10.406 42.108Z" fill="#C7D1D9"/><path fill-rule="evenodd" clip-rule="evenodd" d="M161.625 168.98c-1.27 3.05-2.516 5.712-3.689 7.756h-6.061c-.652-21.084 7.33-37.307 14.011-47.089-1.484-.106-2.823-.727-3.669-2.254-2.979-5.376-1.903-8.336 1.281-9.309 1.751-.535 3.397-.17 5.369.267 1.613.358 3.443.764 5.725.764h.003c.221 0 .422.015.605.043l2.705.155s10.982 37.221 6.058 49.667h-22.338Z" fill="#FFB200"/><path fill-rule="evenodd" clip-rule="evenodd" d="M161.625 168.98c1.667-4.003 3.375-8.675 5.02-13.499.612 5.313 1.632 10.649 3.329 13.499h-8.349Z" fill="#000" fill-opacity=".1"/></g><path d="M4.625 39.138c2.328 2.487 6.29 2.338 8.787.217 2.547-2.162 3.398-5.83 2.458-8.993-.485-1.63-1.657-3.053-3.382-3.392-1.748-.344-3.478.683-3.914 2.427-.91 3.64 3.297 5.667 6.059 6.659 3.288 1.18 7.095.965 9.27-2.114 1.895-2.684 3.032-6.527 2.087-9.755-.462-1.58-1.518-3.15-3.051-3.852-1.716-.786-3.813-.2-4.668 1.527-1.609 3.246 1.985 6.497 4.576 7.815 3.25 1.654 7.358 1.537 10.35-.643a8.789 8.789 0 0 0 3.401-9.105c-.187-.815-1.201-1.24-1.948-1-.854.276-1.188 1.131-1 1.95.897 3.899-2.781 6.996-6.442 6.85-1.988-.079-3.828-1.089-5.206-2.479-.556-.56-1.061-1.201-.958-2.01.02-.153.247-.194.024-.108a.647.647 0 0 1 .405-.043c.356.064.654.376.872.643 1.34 1.64.96 4.068.292 5.901-.708 1.938-1.732 3.874-4.012 4.03-2.05.14-4.303-.896-5.996-1.978-.348-.223-.747-.518-.939-.897-.078-.155-.236-.602-.076-.762.287-.289.867.337 1.003.555 1.07 1.72.56 4.508-.726 5.96-1.403 1.586-3.725 1.869-5.22.271-.572-.61-1.672-.443-2.186.14-.597.678-.433 1.574.14 2.186Z" fill="#BD7B00"/><g clip-path="url(#eB)" fill="#00576B"><path d="m349.689 174.124 11.188-4.197-3.087-1.815 1.02 10.075.146 1.439c.099.977 1.051 1.881 2.134 1.969 1.06.085 1.929-.666 1.83-1.647l-1.02-10.075-.145-1.439c-.143-1.416-1.805-2.296-3.087-1.815l-11.188 4.198c-.928.348-1.119 1.546-.548 2.4.628.941 1.827 1.256 2.757.907Z"/><path d="M308.438 174.762c7.524 3.542 16.189 3.935 22.72.675 3.512-1.754 6.818-4.843 6.346-9.068-.424-3.798-3.893-7.752-8.324-7.736-4.483.017-7.077 3.191-8.01 6.803-.477 1.849-.658 3.824-.812 5.762-.139 1.753-.219 3.542.08 5.351.626 3.777 2.826 7.371 6.748 9.458 3.958 2.106 8.444 2.449 12.304 1.434 4.524-1.19 8.357-3.713 11.791-6.389 3.77-2.938 7.011-6.394 9.737-10.197.541-.755-.004-1.992-.918-2.53-1.028-.604-2.115-.329-2.657.428-3.858 5.383-8.988 10.196-15.143 13.426-2.708 1.421-5.807 2.512-9.263 2.115-3.005-.344-6.114-1.867-7.639-4.539-1.444-2.53-1.312-5.45-1.073-7.97.278-2.94.357-6.676 2.797-8.601 1.834-1.447 4.744-1.194 5.977 1.367 1.442 2.994-.722 5.537-3.025 6.962-5.341 3.304-13.287 3.403-19.898.292-1.011-.476-2.15-.434-2.657.428-.429.731-.099 2.05.919 2.529Z"/></g><g clip-path="url(#eC)" fill="#028CA1"><path d="M341.291 30.121C335.755 18.823 322.99 12.55 310.7 15.628c-5.922 1.483-11.473 5.098-15.075 10.047-3.825 5.256-5.821 12.95-.698 18.135 2.426 2.456 6.105 3.165 9.407 2.523 4.199-.817 7.516-3.602 10.371-6.641 1.824-1.943-1.339-4.62-3.163-2.677-2.041 2.172-4.357 4.27-7.287 5.106-1.992.57-4.393.441-6.046-.918-4.26-3.5-1.784-9.809.965-13.365 6.133-7.93 17.246-11.13 26.533-7.172 4.952 2.11 9.28 5.933 11.664 10.8.492 1.003 1.482 1.683 2.633 1.287.954-.328 1.783-1.62 1.287-2.632Z"/><path d="m337.793 18.122.196 14.091 2.45-2.182-13.49-1.877c-1.108-.154-2.205.516-2.419 1.653-.199 1.061.541 2.264 1.653 2.418l13.49 1.878c1.374.191 2.469-.808 2.45-2.182l-.196-14.091c-.016-1.12-1.142-1.996-2.213-1.921-1.172.082-1.936 1.09-1.921 2.213Z"/></g><defs><clipPath id="ea"><path fill="#fff" transform="translate(24 29.103)" d="M0 0h300v217.358H0z"/></clipPath><clipPath id="eB"><path fill="#fff" transform="rotate(30.448 -104.637 666.902)" d="M0 0h51.949v33.51H0z"/></clipPath><clipPath id="eC"><path fill="#fff" transform="rotate(145.651 170.323 68.085)" d="M0 0h53.932v33.86H0z"/></clipPath></defs></symbol></svg>