<svg width="1153" height="1063" viewBox="0 0 1153 1063" fill="none" xmlns="http://www.w3.org/2000/svg">
<circle cx="531.5" cy="531.5" r="531.5" fill="#FFF3D6"/>
<path d="M572.817 453.552L626.265 296C652.094 219.863 734.753 179.08 810.89 204.909L850.278 218.271C926.415 244.1 967.198 326.759 941.37 402.896L887.922 560.448C878.548 588.079 873.247 616.07 871.284 643.865C847.546 624.151 821.375 606.203 792.871 590.242C836.537 566.525 879.268 521.223 901.633 455.297C903.086 451.013 904.151 447.872 904.973 445.45C919.731 401.946 896.425 354.708 852.921 339.95L813.533 326.588C791.781 319.209 780.128 295.59 787.507 273.838C789.354 268.393 786.446 262.498 781 260.65C775.555 258.803 769.66 261.712 767.813 267.157C760.434 288.909 736.815 300.562 715.063 293.183C682.44 282.116 647.005 299.599 635.938 332.222L632.597 342.069L629.257 351.916C628.435 354.338 627.37 357.48 625.916 361.763C603.472 427.925 609.932 490.091 630.325 535.527C596.793 530.795 565.291 529.112 535.136 530.06C550.54 506.759 563.421 481.252 572.817 453.552Z" fill="#506C7F"/>
<path d="M703.645 585.776C748.261 600.912 841.852 566.78 881.938 448.616C883.608 443.692 884.65 440.62 885.278 438.769C896.345 406.146 878.862 370.711 846.239 359.644L806.851 346.282C786.29 339.307 771.759 322.65 766.592 303.12C750.608 315.475 728.941 319.852 708.381 312.877C686.629 305.498 663.01 317.151 655.631 338.903L652.29 348.75L648.95 358.597C648.322 360.448 647.28 363.52 645.609 368.444C605.523 486.608 659.028 570.64 703.645 585.776Z" fill="#F9EBB2"/>
<path d="M767.783 601.374C741.777 610.614 716.758 612.184 696.965 605.47C677.173 598.756 658.274 582.286 643.258 559.13C614.985 553.689 586.693 551.119 558.613 550.805C574.678 583.365 645.273 726.45 647.778 731.527C650.609 737.263 653.8 738.149 659.471 735.351C664.495 732.872 807.487 662.322 840.021 646.27C817.556 629.437 793.531 614.259 767.783 601.374Z" fill="#F9EBB2"/>
<path d="M932.248 882.931C928.56 893.802 916.744 899.632 905.873 895.944L354.441 708.876C343.569 705.188 337.74 693.372 341.428 682.501L368.151 603.725C371.839 592.854 379.581 584.5 389.139 579.793L389.113 579.74C435.706 562.672 485.124 553.007 535.566 551.101L627.776 737.994C637.536 757.775 651.459 762.499 671.241 752.739L858.134 660.529C897.008 692.723 930.341 730.471 956.931 772.366L956.878 772.392C961.599 781.944 962.66 793.284 958.972 804.155L932.248 882.931Z" fill="#7AD686"/>
<path d="M975.524 763.192L975.709 763.101C952.613 726.344 924.391 692.174 891.171 661.47C891.752 630.143 897.011 598.393 907.617 567.129L961.065 409.577C990.585 322.559 943.978 228.097 856.96 198.577L817.572 185.215C730.554 155.695 636.092 202.301 606.572 289.319L553.124 446.871C542.525 478.116 527.393 506.505 508.806 531.713C463.795 535.604 421.492 545.497 379.847 560.961L379.938 561.146C365.616 568.212 353.988 580.738 348.456 597.044L321.733 675.82C314.347 697.592 325.987 721.185 347.759 728.57L899.191 915.638C920.963 923.024 944.555 911.384 951.941 889.612L978.665 810.836C984.197 794.529 982.59 777.514 975.524 763.192ZM572.818 453.552L626.266 296C652.095 219.863 734.754 179.08 810.891 204.909L850.279 218.271C926.416 244.099 967.199 326.759 941.371 402.896L887.923 560.448C878.549 588.079 873.248 616.07 871.286 643.865C847.547 624.151 821.376 606.203 792.872 590.241C836.538 566.525 879.269 521.223 901.634 455.297C903.087 451.013 904.152 447.872 904.974 445.45C919.732 401.946 896.426 354.708 852.922 339.95L813.534 326.588C791.782 319.209 780.129 295.59 787.508 273.838C789.355 268.392 786.447 262.498 781.001 260.65C775.556 258.803 769.661 261.711 767.814 267.157C760.435 288.909 736.816 300.562 715.064 293.183C682.441 282.116 647.006 299.599 635.939 332.222C635.939 332.222 627.371 357.48 625.917 361.763C603.473 427.925 609.933 490.091 630.326 535.527C596.794 530.795 565.292 529.112 535.137 530.06C550.541 506.759 563.422 481.252 572.818 453.552ZM643.258 559.13C658.274 582.287 677.173 598.756 696.966 605.47C716.758 612.184 741.777 610.614 767.783 601.374C793.531 614.259 817.547 629.433 840.021 646.27C807.475 662.328 664.482 732.878 659.471 735.351C653.801 738.149 650.612 737.254 647.779 731.527C645.27 726.46 574.675 583.375 558.61 550.815C586.684 551.116 614.985 553.689 643.258 559.13ZM645.611 368.444C647.282 363.521 655.633 338.903 655.633 338.903C663.012 317.151 686.631 305.498 708.383 312.877C728.943 319.852 750.61 315.475 766.594 303.12C771.761 322.65 786.292 339.307 806.853 346.282L846.241 359.644C878.864 370.711 896.347 406.146 885.28 438.769C884.652 440.62 883.61 443.692 881.94 448.616C841.854 566.78 748.263 600.912 703.647 585.776C659.03 570.64 605.526 486.608 645.611 368.444ZM932.247 882.931C928.559 893.802 916.743 899.632 905.872 895.944L354.44 708.876C343.569 705.189 337.739 693.373 341.427 682.501L368.151 603.725C371.838 592.854 379.581 584.501 389.138 579.793L389.112 579.74C435.705 562.672 485.123 553.007 535.565 551.101L627.775 737.994C637.535 757.775 651.458 762.499 671.24 752.739L858.133 660.529C897.007 692.723 930.34 730.471 956.93 772.367L956.877 772.393C961.598 781.944 962.659 793.284 958.971 804.155L932.247 882.931Z" fill="#394240"/>
<path d="M721.201 372.127C704.55 366.478 692.138 373.061 687.42 377.84C683.516 381.808 683.595 388.017 687.407 392.088C691.233 396.186 697.746 396.342 701.974 392.681C702.407 392.312 706.465 389.088 714.52 391.821C722.476 394.52 723.856 399.775 723.93 400.042C724.53 404.034 727.319 407.143 730.883 408.352C732.4 408.867 734.063 409.046 735.754 408.786C741.434 407.935 745.349 402.642 744.498 396.962C743.507 390.334 737.478 377.649 721.201 372.127Z" fill="#394240"/>
<path d="M785.896 425.499C789.721 429.597 796.234 429.753 800.463 426.093C800.895 425.724 804.954 422.5 813.008 425.232C820.965 427.931 822.344 433.187 822.419 433.453C823.019 437.445 825.807 440.554 829.372 441.764C830.888 442.278 832.551 442.458 834.243 442.197C839.923 441.346 843.838 436.053 842.986 430.373C841.996 423.745 835.967 411.06 819.689 405.538C803.038 399.889 790.626 406.472 785.909 411.252C781.991 415.226 782.073 421.425 785.896 425.499Z" fill="#394240"/>
<path d="M198.325 327.01C199.514 269.603 247.032 224.014 304.438 225.204L387.606 226.927C445.012 228.116 490.601 275.633 489.412 333.04L487.904 405.812C488.618 371.37 461.263 342.857 426.821 342.144L364.445 340.851C341.48 340.376 323.247 321.371 323.723 298.406C323.842 292.657 319.291 287.914 313.542 287.795C307.793 287.676 303.05 292.226 302.931 297.975C302.455 320.94 283.45 339.174 260.485 338.698C226.044 337.984 197.531 365.34 196.817 399.781L198.325 327.01Z" fill="#506C7F"/>
<path d="M645.411 835.492C645.173 846.969 635.666 856.091 624.189 855.853L42.0145 843.793C30.5374 843.555 21.4156 834.047 21.6533 822.57L23.3762 739.403C23.6139 727.925 28.4763 717.626 36.1693 710.255L36.1286 710.213C79.971 676.352 129.895 650.127 183.812 633.043C220.945 675.549 274.957 703.012 335.836 704.274C396.777 705.536 451.934 680.282 490.807 639.257C544.146 658.563 593.087 686.888 635.612 722.631L635.569 722.672C642.94 730.355 647.372 740.847 647.134 752.324L645.411 835.492Z" fill="#053F00" fill-opacity="0.61"/>
<path d="M337.409 641.904C307.749 641.289 280.395 631.809 257.704 616.103C240.23 618.684 223 622.019 206.174 626.444C239.279 660.557 284.994 682.419 336.267 683.482C387.602 684.545 434.246 664.534 468.737 631.748C452.253 626.685 435.321 622.705 418.114 619.426C394.792 634.179 367.068 642.518 337.409 641.904Z" fill="#F9EBB2"/>
<path d="M487.26 436.999L476.864 436.784C471.115 436.665 466.564 431.922 466.683 426.173L466.899 415.777L467.114 405.381C467.59 382.416 449.356 363.411 426.392 362.935L364.016 361.643C342.309 361.194 323.431 349.695 312.615 332.633C301.101 349.232 281.763 359.939 260.056 359.49C237.092 359.014 218.087 377.247 217.611 400.212L217.396 410.608L217.18 421.004C217.061 426.753 212.318 431.304 206.569 431.185L196.173 430.969C190.424 430.85 185.681 435.401 185.562 441.15L185.131 461.942C185.012 467.691 189.563 472.434 195.312 472.553L205.708 472.769C211.457 472.888 216.007 477.631 215.888 483.38L215.673 493.776C214.246 562.67 268.946 619.684 337.84 621.112C406.734 622.539 463.749 567.838 465.176 498.944L465.391 488.548C465.51 482.799 470.254 478.249 476.003 478.368L486.399 478.583C492.148 478.702 496.891 474.152 497.01 468.403L497.441 447.611C497.56 441.862 493.009 437.118 487.26 436.999Z" fill="#F9EBB2"/>
<path d="M650.564 708.277L650.712 708.134C590.951 657.463 518.98 620.777 439.782 602.651C467.453 576.776 485.121 540.252 485.968 499.375C503.194 499.732 517.445 486.059 517.802 468.833L518.232 448.041C518.423 438.831 514.528 430.565 508.315 424.726L510.205 333.47C511.632 264.576 456.932 207.562 388.038 206.135L304.87 204.412C235.976 202.984 178.962 257.685 177.534 326.579L175.644 417.835C169.195 423.411 164.96 431.508 164.769 440.719L164.339 461.511C163.982 478.737 177.654 492.988 194.881 493.345C194.034 534.222 210.174 571.447 236.759 598.446C156.868 613.286 83.43 646.949 21.6316 695.102L21.7742 695.251C10.2503 706.307 2.94112 721.756 2.58449 738.972L0.861608 822.14C0.385447 845.125 18.5986 864.109 41.584 864.585L623.758 876.645C646.744 877.121 665.727 858.908 666.203 835.923L667.926 752.755C668.283 735.539 661.62 719.8 650.564 708.277ZM198.326 327.01C199.515 269.603 247.033 224.014 304.44 225.204L387.607 226.926C445.014 228.116 490.603 275.633 489.413 333.04L487.906 405.811C488.619 371.37 461.264 342.857 426.822 342.144L364.446 340.851C341.482 340.376 323.248 321.371 323.724 298.406C323.843 292.657 319.292 287.914 313.543 287.795C307.794 287.676 303.051 292.226 302.932 297.975C302.456 320.94 283.451 339.174 260.487 338.698C226.045 337.984 197.532 365.34 196.819 399.781L198.326 327.01ZM215.672 493.776L215.888 483.38C216.007 477.631 211.456 472.888 205.707 472.769L195.311 472.553C189.562 472.434 185.012 467.691 185.131 461.942L185.561 441.15C185.68 435.401 190.424 430.85 196.173 430.969L206.569 431.185C212.318 431.304 217.061 426.753 217.18 421.004L217.611 400.212C218.086 377.247 237.091 359.014 260.056 359.49C281.763 359.939 301.101 349.232 312.614 332.633C323.431 349.695 342.309 361.194 364.016 361.643L426.391 362.935C449.356 363.411 467.59 382.416 467.114 405.381L466.683 426.173C466.564 431.922 471.115 436.665 476.864 436.784L487.26 436.999C493.009 437.118 497.559 441.862 497.44 447.611L497.01 468.403C496.89 474.152 492.147 478.702 486.398 478.583L476.002 478.368C470.253 478.249 465.51 482.8 465.391 488.548L465.176 498.944C463.748 567.839 406.734 622.539 337.84 621.112C268.946 619.685 214.245 562.67 215.672 493.776ZM257.704 616.103C280.395 631.809 307.749 641.289 337.409 641.904C367.069 642.518 394.792 634.179 418.114 619.426C435.311 622.705 452.254 626.685 468.738 631.748C434.236 664.534 387.602 684.545 336.267 683.482C284.994 682.42 239.279 660.557 206.185 626.434C223 622.009 240.23 618.684 257.704 616.103ZM645.411 835.492C645.174 846.969 635.666 856.091 624.189 855.853L42.0147 843.793C30.5376 843.555 21.4158 834.047 21.6535 822.57L23.3764 739.403C23.6142 727.925 28.4765 717.626 36.1695 710.255L36.1288 710.213C79.9712 676.352 129.896 650.127 183.812 633.043C220.945 675.549 274.957 703.012 335.836 704.274C396.777 705.536 451.934 680.282 490.808 639.257C544.147 658.563 593.087 686.888 635.612 722.631L635.57 722.672C642.94 730.355 647.372 740.847 647.134 752.324L645.411 835.492Z" fill="#394240"/>
<path d="M264.16 430.942C269.043 433.696 275.3 431.88 278.228 427.115C278.529 426.633 281.426 422.335 289.93 422.511C298.33 422.685 301.23 427.28 301.381 427.512C303.157 431.137 306.754 433.26 310.517 433.338C312.118 433.371 313.758 433.041 315.292 432.282C320.451 429.758 322.587 423.531 320.063 418.372C317.119 412.352 307.545 402.075 290.361 401.719C272.781 401.355 262.932 411.375 259.876 417.354C257.339 422.325 259.287 428.21 264.16 430.942Z" fill="#394240"/>
<path d="M368.14 433.096C373.024 435.85 379.281 434.034 382.208 429.269C382.509 428.787 385.407 424.489 393.911 424.665C402.31 424.839 405.211 429.434 405.362 429.666C407.138 433.291 410.734 435.414 414.497 435.492C416.098 435.525 417.738 435.195 419.272 434.437C424.431 431.912 426.568 425.685 424.043 420.526C421.1 414.506 411.526 404.229 394.341 403.873C376.762 403.509 366.913 413.529 363.856 419.508C361.319 424.479 363.267 430.364 368.14 433.096Z" fill="#394240"/>
</svg>
