<svg width="1063" height="1063" viewBox="0 0 1063 1063" fill="none" xmlns="http://www.w3.org/2000/svg">
<circle cx="531.5" cy="531.5" r="531.5" fill="#FFF3D6"/>
<path d="M756 219H706V319H756V219Z" fill="#7AD686"/>
<path d="M356 219H306V319H356V219Z" fill="#7AD686"/>
<path d="M906 819C906 832.8 894.8 844 881 844H181C167.2 844 156 832.8 156 819V319C156 305.2 167.2 294 181 294H281V331.5C281 338.412 286.588 344 293.5 344H368.5C375.412 344 381 338.412 381 331.5V294H681V331.5C681 338.412 686.588 344 693.5 344H768.5C775.412 344 781 338.412 781 331.5V294H881C894.8 294 906 305.2 906 319V819Z" fill="#053F00" fill-opacity="0.61"/>
<path d="M312.512 686.175C324.212 670 351.487 644 405.999 644C460.537 644 487.812 670.025 499.499 686.175C473.849 706.675 441.387 719 405.999 719C370.612 719 338.149 706.675 312.512 686.175Z" fill="#45AAB8"/>
<path d="M517.7 668.862C501.713 648.075 468.325 619 406 619C343.675 619 310.288 648.075 294.3 668.862C270.563 642.337 256 607.4 256 569C256 486.163 323.163 419 406 419C488.837 419 556 486.163 556 569C556 607.4 541.438 642.337 517.7 668.862Z" fill="#506C7F"/>
<path d="M881 269H781V206.5C781 199.588 775.412 194 768.5 194H693.5C686.588 194 681 199.588 681 206.5V269H381V206.5C381 199.588 375.412 194 368.5 194H293.5C286.588 194 281 199.588 281 206.5V269H181C153.363 269 131 291.363 131 319V819C131 846.637 153.363 869 181 869H881C908.637 869 931 846.637 931 819V319C931 291.363 908.637 269 881 269ZM706 219H756V319H706V219ZM306 219H356V319H306V219ZM906 819C906 832.8 894.8 844 881 844H181C167.2 844 156 832.8 156 819V319C156 305.2 167.2 294 181 294H281V331.5C281 338.412 286.588 344 293.5 344H368.5C375.412 344 381 338.412 381 331.5V294H681V331.5C681 338.412 686.588 344 693.5 344H768.5C775.412 344 781 338.412 781 331.5V294H881C894.8 294 906 305.2 906 319V819Z" fill="#394240"/>
<path d="M643.5 619H768.5C775.412 619 781 613.412 781 606.5C781 599.588 775.412 594 768.5 594H643.5C636.588 594 631 599.588 631 606.5C631 613.412 636.588 619 643.5 619Z" fill="#7AD686"/>
<path d="M818.5 519H643.5C636.588 519 631 524.588 631 531.5C631 538.412 636.588 544 643.5 544H818.5C825.412 544 831 538.412 831 531.5C831 524.588 825.412 519 818.5 519Z" fill="#7AD686"/>
<path d="M818.5 669H643.5C636.588 669 631 674.588 631 681.5C631 688.412 636.588 694 643.5 694H818.5C825.412 694 831 688.412 831 681.5C831 674.588 825.412 669 818.5 669Z" fill="#7AD686"/>
<path d="M643.5 469H718.5C725.412 469 731 463.412 731 456.5C731 449.588 725.412 444 718.5 444H643.5C636.588 444 631 449.588 631 456.5C631 463.412 636.588 469 643.5 469Z" fill="#7AD686"/>
<path d="M406 394C309.363 394 231 472.363 231 569C231 665.637 309.363 744 406 744C502.637 744 581 665.637 581 569C581 472.363 502.637 394 406 394ZM406 719C370.612 719 338.15 706.675 312.512 686.175C324.212 670 351.487 644 406 644C460.537 644 487.812 670.025 499.5 686.175C473.85 706.675 441.388 719 406 719ZM517.7 668.862C501.713 648.075 468.325 619 406 619C343.675 619 310.288 648.075 294.3 668.862C270.563 642.337 256 607.4 256 569C256 486.163 323.163 419 406 419C488.837 419 556 486.163 556 569C556 607.4 541.438 642.337 517.7 668.862Z" fill="#7AD686"/>
<path d="M468.5 556.5V531.5C468.5 496.975 440.525 469 406 469C371.475 469 343.5 496.975 343.5 531.5V556.5C343.5 591.025 371.475 619 406 619C440.525 619 468.5 591.025 468.5 556.5ZM443.5 556.5C443.5 577.212 426.712 594 406 594C385.288 594 368.5 577.212 368.5 556.5V531.5C368.5 510.788 385.288 494 406 494C426.712 494 443.5 510.788 443.5 531.5V556.5Z" fill="#394240"/>
<path d="M443.5 556.5C443.5 577.212 426.712 594 406 594C385.288 594 368.5 577.212 368.5 556.5V531.5C368.5 510.788 385.288 494 406 494C426.712 494 443.5 510.788 443.5 531.5V556.5Z" fill="#F9EBB2"/>
</svg>
