<svg width="1063" height="1063" viewBox="0 0 1063 1063" fill="none" xmlns="http://www.w3.org/2000/svg">
<circle cx="531.5" cy="531.5" r="531.5" fill="#FFF3D6"/>
<path d="M103 556.5V844C103 871.613 125.387 894 153 894C180.613 894 203 871.613 203 844V531.5H128C114.2 531.5 103 542.7 103 556.5Z" fill="#053F00" fill-opacity="0.61"/>
<path d="M828 144H253C239.2 144 228 155.2 228 169V844C228 863.238 220.7 880.725 208.787 894H803C830.612 894 853 871.613 853 844V169C853 155.2 841.8 144 828 144Z" fill="#053F00" fill-opacity="0.61"/>
<path d="M828 119H253C225.363 119 203 141.363 203 169V506.5H128C100.363 506.5 78 528.863 78 556.5V844C78 885.412 111.588 919 153 919H803C844.412 919 878 885.412 878 844V169C878 141.363 855.637 119 828 119ZM203 844C203 871.613 180.613 894 153 894C125.387 894 103 871.613 103 844V556.5C103 542.7 114.2 531.5 128 531.5H203V844ZM853 844C853 871.613 830.613 894 803 894H208.788C220.7 880.725 228 863.238 228 844V169C228 155.2 239.2 144 253 144H828C841.8 144 853 155.2 853 169V844Z" fill="#435071"/>
<path d="M740.5 431.5H340.5C333.588 431.5 328 437.088 328 444C328 450.912 333.588 456.5 340.5 456.5H740.5C747.412 456.5 753 450.912 753 444C753 437.088 747.412 431.5 740.5 431.5Z" fill="#7AD686"/>
<path d="M740.5 356.5H340.5C333.588 356.5 328 362.088 328 369C328 375.912 333.588 381.5 340.5 381.5H740.5C747.412 381.5 753 375.912 753 369C753 362.088 747.412 356.5 740.5 356.5Z" fill="#7AD686"/>
<path d="M740.5 581.5H340.5C333.588 581.5 328 587.088 328 594C328 600.912 333.588 606.5 340.5 606.5H740.5C747.412 606.5 753 600.912 753 594C753 587.088 747.412 581.5 740.5 581.5Z" fill="#7AD686"/>
<path d="M740.5 656.5H340.5C333.588 656.5 328 662.088 328 669C328 675.912 333.588 681.5 340.5 681.5H740.5C747.412 681.5 753 675.912 753 669C753 662.088 747.412 656.5 740.5 656.5Z" fill="#7AD686"/>
<path d="M740.5 731.5H340.5C333.588 731.5 328 737.088 328 744C328 750.912 333.588 756.5 340.5 756.5H740.5C747.412 756.5 753 750.912 753 744C753 737.088 747.412 731.5 740.5 731.5Z" fill="#7AD686"/>
<path d="M740.5 506.5H340.5C333.588 506.5 328 512.088 328 519C328 525.912 333.588 531.5 340.5 531.5H740.5C747.412 531.5 753 525.912 753 519C753 512.088 747.412 506.5 740.5 506.5Z" fill="#7AD686"/>
<path d="M340.5 306.5H528C534.912 306.5 540.5 300.912 540.5 294C540.5 287.088 534.912 281.5 528 281.5H340.5C333.588 281.5 328 287.088 328 294C328 300.912 333.588 306.5 340.5 306.5Z" fill="#7AD686"/>
<path opacity="0.15" d="M103 556.5V844C103 871.613 125.387 894 153 894C180.613 894 203 871.613 203 844V531.5H128C114.2 531.5 103 542.7 103 556.5Z" fill="#231F20"/>
</svg>
