<svg width="800" height="800" viewBox="0 0 800 800" fill="none" xmlns="http://www.w3.org/2000/svg">
<path d="M689.651 760.35C709.176 779.875 740.826 779.875 760.351 760.35C779.876 740.825 779.876 709.15 760.351 689.638L630.326 559.613C610.251 586.413 586.413 610.238 559.613 630.313L689.651 760.35Z" fill="#7AD686"/>
<path d="M350 625C501.878 625 625 501.878 625 350C625 198.122 501.878 75 350 75C198.122 75 75 198.122 75 350C75 501.878 198.122 625 350 625Z" fill="#F9EBB2"/>
<path d="M350 25C170.512 25 25 170.512 25 350C25 529.488 170.512 675 350 675C529.488 675 675 529.488 675 350C675 170.512 529.488 25 350 25ZM350 650C184.312 650 50 515.688 50 350C50 184.312 184.312 50 350 50C515.688 50 650 184.312 650 350C650 515.688 515.688 650 350 650Z" fill="#053F00" fill-opacity="0.61"/>
<path d="M778.025 671.963L644.725 538.662C679.662 484.2 700 419.5 700 350C700 156.7 543.3 0 350 0C156.7 0 0 156.7 0 350C0 543.3 156.7 700 350 700C419.5 700 484.2 679.662 538.662 644.725L671.963 778.025C701.263 807.325 748.738 807.325 778.025 778.025C807.313 748.725 807.325 701.263 778.025 671.963ZM350 675C170.512 675 25 529.488 25 350C25 170.512 170.512 25 350 25C529.488 25 675 170.512 675 350C675 529.488 529.488 675 350 675ZM760.35 760.35C740.825 779.875 709.163 779.875 689.65 760.35L559.612 630.312C586.425 610.238 610.25 586.4 630.325 559.612L760.35 689.638C779.887 709.15 779.887 740.825 760.35 760.35Z" fill="#394240"/>
<path d="M350 50C184.312 50 50 184.312 50 350C50 515.688 184.312 650 350 650C515.688 650 650 515.688 650 350C650 184.312 515.688 50 350 50ZM350 625C198.125 625 75 501.875 75 350C75 198.125 198.125 75 350 75C501.875 75 625 198.125 625 350C625 501.875 501.875 625 350 625Z" fill="#394240"/>
<path d="M350 137.5C343.088 137.5 337.5 143.088 337.5 150C337.5 156.912 343.088 162.5 350 162.5C453.55 162.5 537.5 246.45 537.5 350C537.5 356.912 543.088 362.5 550 362.5C556.912 362.5 562.5 356.912 562.5 350C562.5 232.638 467.362 137.5 350 137.5Z" fill="#394240"/>
</svg>
