<svg width="600" height="800" viewBox="0 0 600 800" fill="none" xmlns="http://www.w3.org/2000/svg">
<path d="M150 175C150 92.1625 217.163 25 300 25C382.837 25 450 92.1625 450 175V300H400V175C400 119.775 355.225 75 300 75C244.775 75 200 119.775 200 175V300H150V175Z" fill="#7AD686"/>
<path d="M25 750C25 763.8 36.2 775 50 775H550C563.8 775 575 763.8 575 750V700H25V750Z" fill="#F9EBB2"/>
<path d="M575 425H25V675H575V425Z" fill="#053F00" fill-opacity="0.61"/>
<path d="M550 325H50C36.2 325 25 336.187 25 350V400H575V350C575 336.187 563.8 325 550 325Z" fill="#F9EBB2"/>
<path d="M550 300H475V175C475 78.35 396.65 0 300 0C203.35 0 125 78.35 125 175V300H50C22.3625 300 0 322.363 0 350V750C0 777.637 22.3625 800 50 800H550C577.637 800 600 777.637 600 750V350C600 322.363 577.637 300 550 300ZM150 175C150 92.1625 217.162 25 300 25C382.838 25 450 92.1625 450 175V300H400V175C400 119.775 355.225 75 300 75C244.775 75 200 119.775 200 175V300H150V175ZM375 175V300H225V175C225 133.575 258.588 100 300 100C341.412 100 375 133.575 375 175ZM575 750C575 763.8 563.8 775 550 775H50C36.2 775 25 763.8 25 750V700H575V750ZM575 675H25V425H575V675ZM575 400H25V350C25 336.188 36.2 325 50 325H550C563.8 325 575 336.188 575 350V400Z" fill="#394240"/>
<path d="M262.5 562.238V612.5C262.5 633.2 279.288 650 300 650C320.712 650 337.5 633.2 337.5 612.5V562.238C352.612 550.838 362.5 532.888 362.5 512.5C362.5 477.975 334.525 450 300 450C265.475 450 237.5 477.975 237.5 512.5C237.5 532.888 247.388 550.825 262.5 562.238ZM300 475C320.712 475 337.5 491.775 337.5 512.5C337.5 528.812 327.037 542.525 312.5 547.7V612.5C312.5 619.412 306.912 625 300 625C293.088 625 287.5 619.412 287.5 612.5V547.7C272.963 542.525 262.5 528.8 262.5 512.5C262.5 491.775 279.288 475 300 475Z" fill="#394240"/>
<path d="M300 475C320.712 475 337.5 491.775 337.5 512.5C337.5 528.812 327.037 542.525 312.5 547.7V612.5C312.5 619.412 306.912 625 300 625C293.088 625 287.5 619.412 287.5 612.5V547.7C272.963 542.525 262.5 528.8 262.5 512.5C262.5 491.775 279.288 475 300 475Z" fill="#506C7F"/>
<g opacity="0.15">
<path d="M25 750C25 763.8 36.2 775 50 775H550C563.8 775 575 763.8 575 750V700H25V750Z" fill="#F9EBB2"/>
<path d="M550 325H50C36.2 325 25 336.188 25 350V400H575V350C575 336.188 563.8 325 550 325Z" fill="#F9EBB2"/>
</g>
</svg>
