<svg width="800" height="800" viewBox="0 0 800 800" fill="none" xmlns="http://www.w3.org/2000/svg">
<path d="M425 387.5H787.5C794.412 387.5 800 381.912 800 375C800 167.9 632.1 0 425 0C418.088 0 412.5 5.5875 412.5 12.5V375C412.5 381.9 418.088 387.5 425 387.5ZM437.5 25.3125C620.837 31.7625 768.237 179.15 774.687 362.5H437.5V25.3125Z" fill="#394240"/>
<path d="M787.5 412.5H450C449.45 412.5 448.975 412.737 448.438 412.8C447.388 412.937 446.337 413.037 445.337 413.425C444.362 413.812 443.55 414.475 442.725 415.087C442.275 415.425 441.737 415.6 441.325 415.987C441.3 416.012 441.287 416.062 441.262 416.087C440.187 417.137 439.362 418.4 438.725 419.775C438.675 419.887 438.55 419.975 438.5 420.087C438.3 420.562 438.313 421.137 438.175 421.65C437.888 422.7 437.537 423.762 437.525 424.85L437.5 425C437.5 425.662 437.775 426.25 437.887 426.9C438.037 427.825 438.088 428.75 438.438 429.637C438.875 430.737 439.587 431.638 440.3 432.55C440.562 432.9 440.687 433.337 441.012 433.662L441.138 433.787C441.138 433.787 441.162 433.825 441.187 433.837L690.163 690.162C758.038 622.3 800 528.55 800 425C800 418.088 794.412 412.5 787.5 412.5ZM689.075 654.562L479.45 437.5H774.675C771.762 520.45 740 596.025 689.075 654.562Z" fill="#394240"/>
<path d="M395.187 428.637C387.65 421.087 387.5 407.563 387.5 407.563V62.5C387.5 55.5875 381.912 50 375 50C167.9 50 0 217.9 0 425C0 632.1 167.9 800 375 800C478.55 800 572.3 758.037 640.163 690.162L623.475 673.475C623.225 673.137 407.45 440.887 395.187 428.637ZM375 775C181.7 775 25 618.3 25 425C25 235.888 175 81.9 362.5 75.3125C362.5 75.3125 362.5 401.163 362.5 412.5C362.5 423.838 366.788 435.125 375.2 443.525C383.613 451.925 604.35 689.25 604.35 689.25C542.925 742.625 462.762 775 375 775Z" fill="#394240"/>
<path d="M375 775C181.7 775 25 618.3 25 425C25 235.888 175 81.9 362.5 75.3125C362.5 75.3125 362.5 401.163 362.5 412.5C362.5 423.838 366.788 435.125 375.2 443.525C383.613 451.925 604.35 689.25 604.35 689.25C542.925 742.625 462.762 775 375 775Z" fill="#053F00" fill-opacity="0.61"/>
<path d="M437.5 25.3125C620.837 31.7625 768.237 179.15 774.687 362.5H437.5V25.3125Z" fill="#7AD686"/>
<path d="M689.074 654.562L479.449 437.5H774.674C771.762 520.45 739.999 596.025 689.074 654.562Z" fill="#435071"/>
</svg>
