<svg width="1063" height="1063" viewBox="0 0 1063 1063" fill="none" xmlns="http://www.w3.org/2000/svg">
<circle cx="531.5" cy="531.5" r="531.5" fill="#FFF3D6"/>
<path d="M906 869C906 882.8 894.8 894 881 894H181C167.2 894 156 882.8 156 869V169C156 155.2 167.2 144 181 144H881C894.8 144 906 155.2 906 169V869Z" fill="#053F00" fill-opacity="0.61"/>
<path d="M881 119H181C153.363 119 131 141.363 131 169V869C131 896.637 153.363 919 181 919H881C908.637 919 931 896.637 931 869V169C931 141.363 908.637 119 881 119ZM906 869C906 882.8 894.8 894 881 894H181C167.2 894 156 882.8 156 869V169C156 155.2 167.2 144 181 144H881C894.8 144 906 155.2 906 169V869Z" fill="#394240"/>
<path d="M793.5 281.5H423.663C408.825 244.863 372.95 219 331 219C275.775 219 231 263.775 231 319C231 374.225 275.775 419 331 419C372.938 419 408.813 393.15 423.65 356.525H793.5V356.5C814.212 356.5 831 339.7 831 319C831 298.3 814.212 281.5 793.5 281.5ZM331 394C289.588 394 256 360.412 256 319C256 277.588 289.588 244 331 244C372.412 244 406 277.588 406 319C406 360.412 372.412 394 331 394ZM793.5 331.5V331.525H430.137C430.65 327.4 431 323.25 431 319C431 314.75 430.65 310.6 430.137 306.5H793.5C800.412 306.5 806 312.088 806 319C806 325.912 800.412 331.5 793.5 331.5Z" fill="#394240"/>
<path d="M731 619C689.05 619 653.175 644.863 638.338 681.5H268.5C247.788 681.5 231 698.3 231 719C231 739.7 247.788 756.5 268.5 756.5V756.525H638.35C653.188 793.15 689.062 819 731 819C786.225 819 831 774.225 831 719C831 663.775 786.225 619 731 619ZM631.863 731.525H268.5V731.5C261.588 731.5 256 725.912 256 719C256 712.088 261.588 706.5 268.5 706.5H631.863C631.35 710.6 631 714.75 631 719C631 723.25 631.35 727.4 631.863 731.525ZM731 794C689.588 794 656 760.412 656 719C656 677.588 689.588 644 731 644C772.412 644 806 677.588 806 719C806 760.412 772.412 794 731 794Z" fill="#394240"/>
<path d="M793.5 481.5H623.662C608.812 444.863 572.95 419 531 419C489.05 419 453.175 444.863 438.337 481.5H268.5C247.788 481.5 231 498.3 231 519C231 539.7 247.788 556.5 268.5 556.5V556.525H438.35C453.187 593.15 489.062 619 531 619C572.938 619 608.812 593.15 623.65 556.525H793.5V556.5C814.212 556.5 831 539.7 831 519C831 498.3 814.212 481.5 793.5 481.5ZM431.863 531.525H268.5V531.5C261.588 531.5 256 525.912 256 519C256 512.088 261.588 506.5 268.5 506.5H431.863C431.35 510.6 431 514.75 431 519C431 523.25 431.35 527.4 431.863 531.525ZM531 594C489.588 594 456 560.412 456 519C456 477.588 489.588 444 531 444C572.412 444 606 477.588 606 519C606 560.412 572.412 594 531 594ZM793.5 531.5V531.525H630.137C630.65 527.4 631 523.25 631 519C631 514.75 630.65 510.6 630.137 506.5H793.5C800.412 506.5 806 512.088 806 519C806 525.912 800.412 531.5 793.5 531.5Z" fill="#394240"/>
<path d="M431.863 531.525H268.5V531.5C261.588 531.5 256 525.912 256 519C256 512.088 261.588 506.5 268.5 506.5H431.863C431.35 510.6 431 514.75 431 519C431 523.25 431.35 527.4 431.863 531.525Z" fill="#7AD686"/>
<path d="M531 594C572.421 594 606 560.421 606 519C606 477.579 572.421 444 531 444C489.579 444 456 477.579 456 519C456 560.421 489.579 594 531 594Z" fill="#F9EBB2"/>
<path d="M731 794C772.421 794 806 760.421 806 719C806 677.579 772.421 644 731 644C689.579 644 656 677.579 656 719C656 760.421 689.579 794 731 794Z" fill="#3E8B3B"/>
<path d="M331 394C372.421 394 406 360.421 406 319C406 277.579 372.421 244 331 244C289.579 244 256 277.579 256 319C256 360.421 289.579 394 331 394Z" fill="#14C201"/>
<path d="M793.499 531.5V531.525H630.137C630.649 527.4 630.999 523.25 630.999 519C630.999 514.75 630.649 510.6 630.137 506.5H793.499C800.412 506.5 805.999 512.088 805.999 519C805.999 525.912 800.412 531.5 793.499 531.5Z" fill="#7AD686"/>
<path d="M631.862 731.525H268.5V731.5C261.587 731.5 256 725.912 256 719C256 712.088 261.587 706.5 268.5 706.5H631.862C631.35 710.6 631 714.75 631 719C631 723.25 631.35 727.4 631.862 731.525Z" fill="#7AD686"/>
<path d="M793.499 331.5V331.525H430.137C430.649 327.4 430.999 323.25 430.999 319C430.999 314.75 430.649 310.6 430.137 306.5H793.499C800.412 306.5 805.999 312.088 805.999 319C805.999 325.912 800.412 331.5 793.499 331.5Z" fill="#7AD686"/>
</svg>
